<?xml version="1.0" encoding="utf-8" standalone="no"?>
<!DOCTYPE svg PUBLIC "-//W3C//DTD SVG 1.1//EN"
  "http://www.w3.org/Graphics/SVG/1.1/DTD/svg11.dtd">
<svg xmlns:xlink="http://www.w3.org/1999/xlink" width="855.5825pt" height="566.983437pt" viewBox="0 0 855.5825 566.983437" xmlns="http://www.w3.org/2000/svg" version="1.1">
 <metadata>
  <rdf:RDF xmlns:dc="http://purl.org/dc/elements/1.1/" xmlns:cc="http://creativecommons.org/ns#" xmlns:rdf="http://www.w3.org/1999/02/22-rdf-syntax-ns#">
   <cc:Work>
    <dc:type rdf:resource="http://purl.org/dc/dcmitype/StillImage"/>
    <dc:date>2025-11-01T22:33:11.320213</dc:date>
    <dc:format>image/svg+xml</dc:format>
    <dc:creator>
     <cc:Agent>
      <dc:title>Matplotlib v3.9.4, https://matplotlib.org/</dc:title>
     </cc:Agent>
    </dc:creator>
   </cc:Work>
  </rdf:RDF>
 </metadata>
 <defs>
  <style type="text/css">*{stroke-linejoin: round; stroke-linecap: butt}</style>
 </defs>
 <g id="figure_1">
  <g id="patch_1">
   <path d="M 0 566.983437
L 855.5825 566.983437
L 855.5825 0
L 0 0
z
" style="fill: #ffffff"/>
  </g>
  <g id="axes_1">
   <g id="patch_2">
    <path d="M 42.6325 527.397812
L 848.3825 527.397812
L 848.3825 37.837812
L 42.6325 37.837812
z
" style="fill: #ffffff"/>
   </g>
   <g id="matplotlib.axis_1">
    <g id="xtick_1">
     <g id="line2d_1">
      <path d="M 94.953929 527.397812
L 94.953929 37.837812
" clip-path="url(#p6862c46ee0)" style="fill: none; stroke: #cccccc; stroke-opacity: 0.3; stroke-width: 0.8; stroke-linecap: round"/>
     </g>
     <g id="text_1">
      <!-- 0 -->
      <g style="fill: #262626" transform="translate(91.772679 541.99625) scale(0.1 -0.1)">
       <defs>
        <path id="DejaVuSans-30" d="M 2034 4250
Q 1547 4250 1301 3770
Q 1056 3291 1056 2328
Q 1056 1369 1301 889
Q 1547 409 2034 409
Q 2525 409 2770 889
Q 3016 1369 3016 2328
Q 3016 3291 2770 3770
Q 2525 4250 2034 4250
z
M 2034 4750
Q 2819 4750 3233 4129
Q 3647 3509 3647 2328
Q 3647 1150 3233 529
Q 2819 -91 2034 -91
Q 1250 -91 836 529
Q 422 1150 422 2328
Q 422 3509 836 4129
Q 1250 4750 2034 4750
z
" transform="scale(0.015625)"/>
       </defs>
       <use xlink:href="#DejaVuSans-30"/>
      </g>
     </g>
    </g>
    <g id="xtick_2">
     <g id="line2d_2">
      <path d="M 199.596786 527.397812
L 199.596786 37.837812
" clip-path="url(#p6862c46ee0)" style="fill: none; stroke: #cccccc; stroke-opacity: 0.3; stroke-width: 0.8; stroke-linecap: round"/>
     </g>
     <g id="text_2">
      <!-- 100 -->
      <g style="fill: #262626" transform="translate(190.053036 541.99625) scale(0.1 -0.1)">
       <defs>
        <path id="DejaVuSans-31" d="M 794 531
L 1825 531
L 1825 4091
L 703 3866
L 703 4441
L 1819 4666
L 2450 4666
L 2450 531
L 3481 531
L 3481 0
L 794 0
L 794 531
z
" transform="scale(0.015625)"/>
       </defs>
       <use xlink:href="#DejaVuSans-31"/>
       <use xlink:href="#DejaVuSans-30" x="63.623047"/>
       <use xlink:href="#DejaVuSans-30" x="127.246094"/>
      </g>
     </g>
    </g>
    <g id="xtick_3">
     <g id="line2d_3">
      <path d="M 304.239643 527.397812
L 304.239643 37.837812
" clip-path="url(#p6862c46ee0)" style="fill: none; stroke: #cccccc; stroke-opacity: 0.3; stroke-width: 0.8; stroke-linecap: round"/>
     </g>
     <g id="text_3">
      <!-- 200 -->
      <g style="fill: #262626" transform="translate(294.695893 541.99625) scale(0.1 -0.1)">
       <defs>
        <path id="DejaVuSans-32" d="M 1228 531
L 3431 531
L 3431 0
L 469 0
L 469 531
Q 828 903 1448 1529
Q 2069 2156 2228 2338
Q 2531 2678 2651 2914
Q 2772 3150 2772 3378
Q 2772 3750 2511 3984
Q 2250 4219 1831 4219
Q 1534 4219 1204 4116
Q 875 4013 500 3803
L 500 4441
Q 881 4594 1212 4672
Q 1544 4750 1819 4750
Q 2544 4750 2975 4387
Q 3406 4025 3406 3419
Q 3406 3131 3298 2873
Q 3191 2616 2906 2266
Q 2828 2175 2409 1742
Q 1991 1309 1228 531
z
" transform="scale(0.015625)"/>
       </defs>
       <use xlink:href="#DejaVuSans-32"/>
       <use xlink:href="#DejaVuSans-30" x="63.623047"/>
       <use xlink:href="#DejaVuSans-30" x="127.246094"/>
      </g>
     </g>
    </g>
    <g id="xtick_4">
     <g id="line2d_4">
      <path d="M 408.8825 527.397812
L 408.8825 37.837812
" clip-path="url(#p6862c46ee0)" style="fill: none; stroke: #cccccc; stroke-opacity: 0.3; stroke-width: 0.8; stroke-linecap: round"/>
     </g>
     <g id="text_4">
      <!-- 300 -->
      <g style="fill: #262626" transform="translate(399.33875 541.99625) scale(0.1 -0.1)">
       <defs>
        <path id="DejaVuSans-33" d="M 2597 2516
Q 3050 2419 3304 2112
Q 3559 1806 3559 1356
Q 3559 666 3084 287
Q 2609 -91 1734 -91
Q 1441 -91 1130 -33
Q 819 25 488 141
L 488 750
Q 750 597 1062 519
Q 1375 441 1716 441
Q 2309 441 2620 675
Q 2931 909 2931 1356
Q 2931 1769 2642 2001
Q 2353 2234 1838 2234
L 1294 2234
L 1294 2753
L 1863 2753
Q 2328 2753 2575 2939
Q 2822 3125 2822 3475
Q 2822 3834 2567 4026
Q 2313 4219 1838 4219
Q 1578 4219 1281 4162
Q 984 4106 628 3988
L 628 4550
Q 988 4650 1302 4700
Q 1616 4750 1894 4750
Q 2613 4750 3031 4423
Q 3450 4097 3450 3541
Q 3450 3153 3228 2886
Q 3006 2619 2597 2516
z
" transform="scale(0.015625)"/>
       </defs>
       <use xlink:href="#DejaVuSans-33"/>
       <use xlink:href="#DejaVuSans-30" x="63.623047"/>
       <use xlink:href="#DejaVuSans-30" x="127.246094"/>
      </g>
     </g>
    </g>
    <g id="xtick_5">
     <g id="line2d_5">
      <path d="M 513.525357 527.397812
L 513.525357 37.837812
" clip-path="url(#p6862c46ee0)" style="fill: none; stroke: #cccccc; stroke-opacity: 0.3; stroke-width: 0.8; stroke-linecap: round"/>
     </g>
     <g id="text_5">
      <!-- 400 -->
      <g style="fill: #262626" transform="translate(503.981607 541.99625) scale(0.1 -0.1)">
       <defs>
        <path id="DejaVuSans-34" d="M 2419 4116
L 825 1625
L 2419 1625
L 2419 4116
z
M 2253 4666
L 3047 4666
L 3047 1625
L 3713 1625
L 3713 1100
L 3047 1100
L 3047 0
L 2419 0
L 2419 1100
L 313 1100
L 313 1709
L 2253 4666
z
" transform="scale(0.015625)"/>
       </defs>
       <use xlink:href="#DejaVuSans-34"/>
       <use xlink:href="#DejaVuSans-30" x="63.623047"/>
       <use xlink:href="#DejaVuSans-30" x="127.246094"/>
      </g>
     </g>
    </g>
    <g id="xtick_6">
     <g id="line2d_6">
      <path d="M 618.168214 527.397812
L 618.168214 37.837812
" clip-path="url(#p6862c46ee0)" style="fill: none; stroke: #cccccc; stroke-opacity: 0.3; stroke-width: 0.8; stroke-linecap: round"/>
     </g>
     <g id="text_6">
      <!-- 500 -->
      <g style="fill: #262626" transform="translate(608.624464 541.99625) scale(0.1 -0.1)">
       <defs>
        <path id="DejaVuSans-35" d="M 691 4666
L 3169 4666
L 3169 4134
L 1269 4134
L 1269 2991
Q 1406 3038 1543 3061
Q 1681 3084 1819 3084
Q 2600 3084 3056 2656
Q 3513 2228 3513 1497
Q 3513 744 3044 326
Q 2575 -91 1722 -91
Q 1428 -91 1123 -41
Q 819 9 494 109
L 494 744
Q 775 591 1075 516
Q 1375 441 1709 441
Q 2250 441 2565 725
Q 2881 1009 2881 1497
Q 2881 1984 2565 2268
Q 2250 2553 1709 2553
Q 1456 2553 1204 2497
Q 953 2441 691 2322
L 691 4666
z
" transform="scale(0.015625)"/>
       </defs>
       <use xlink:href="#DejaVuSans-35"/>
       <use xlink:href="#DejaVuSans-30" x="63.623047"/>
       <use xlink:href="#DejaVuSans-30" x="127.246094"/>
      </g>
     </g>
    </g>
    <g id="xtick_7">
     <g id="line2d_7">
      <path d="M 722.811071 527.397812
L 722.811071 37.837812
" clip-path="url(#p6862c46ee0)" style="fill: none; stroke: #cccccc; stroke-opacity: 0.3; stroke-width: 0.8; stroke-linecap: round"/>
     </g>
     <g id="text_7">
      <!-- 600 -->
      <g style="fill: #262626" transform="translate(713.267321 541.99625) scale(0.1 -0.1)">
       <defs>
        <path id="DejaVuSans-36" d="M 2113 2584
Q 1688 2584 1439 2293
Q 1191 2003 1191 1497
Q 1191 994 1439 701
Q 1688 409 2113 409
Q 2538 409 2786 701
Q 3034 994 3034 1497
Q 3034 2003 2786 2293
Q 2538 2584 2113 2584
z
M 3366 4563
L 3366 3988
Q 3128 4100 2886 4159
Q 2644 4219 2406 4219
Q 1781 4219 1451 3797
Q 1122 3375 1075 2522
Q 1259 2794 1537 2939
Q 1816 3084 2150 3084
Q 2853 3084 3261 2657
Q 3669 2231 3669 1497
Q 3669 778 3244 343
Q 2819 -91 2113 -91
Q 1303 -91 875 529
Q 447 1150 447 2328
Q 447 3434 972 4092
Q 1497 4750 2381 4750
Q 2619 4750 2861 4703
Q 3103 4656 3366 4563
z
" transform="scale(0.015625)"/>
       </defs>
       <use xlink:href="#DejaVuSans-36"/>
       <use xlink:href="#DejaVuSans-30" x="63.623047"/>
       <use xlink:href="#DejaVuSans-30" x="127.246094"/>
      </g>
     </g>
    </g>
    <g id="xtick_8">
     <g id="line2d_8">
      <path d="M 827.453929 527.397812
L 827.453929 37.837812
" clip-path="url(#p6862c46ee0)" style="fill: none; stroke: #cccccc; stroke-opacity: 0.3; stroke-width: 0.8; stroke-linecap: round"/>
     </g>
     <g id="text_8">
      <!-- 700 -->
      <g style="fill: #262626" transform="translate(817.910179 541.99625) scale(0.1 -0.1)">
       <defs>
        <path id="DejaVuSans-37" d="M 525 4666
L 3525 4666
L 3525 4397
L 1831 0
L 1172 0
L 2766 4134
L 525 4134
L 525 4666
z
" transform="scale(0.015625)"/>
       </defs>
       <use xlink:href="#DejaVuSans-37"/>
       <use xlink:href="#DejaVuSans-30" x="63.623047"/>
       <use xlink:href="#DejaVuSans-30" x="127.246094"/>
      </g>
     </g>
    </g>
    <g id="text_9">
     <!-- Inference Time per Image (ms) -->
     <g style="fill: #262626" transform="translate(341.042812 557.194062) scale(0.12 -0.12)">
      <defs>
       <path id="DejaVuSans-Bold-49" d="M 588 4666
L 1791 4666
L 1791 0
L 588 0
L 588 4666
z
" transform="scale(0.015625)"/>
       <path id="DejaVuSans-Bold-6e" d="M 4056 2131
L 4056 0
L 2931 0
L 2931 347
L 2931 1631
Q 2931 2084 2911 2256
Q 2891 2428 2841 2509
Q 2775 2619 2662 2680
Q 2550 2741 2406 2741
Q 2056 2741 1856 2470
Q 1656 2200 1656 1722
L 1656 0
L 538 0
L 538 3500
L 1656 3500
L 1656 2988
Q 1909 3294 2193 3439
Q 2478 3584 2822 3584
Q 3428 3584 3742 3212
Q 4056 2841 4056 2131
z
" transform="scale(0.015625)"/>
       <path id="DejaVuSans-Bold-66" d="M 2841 4863
L 2841 4128
L 2222 4128
Q 1984 4128 1890 4042
Q 1797 3956 1797 3744
L 1797 3500
L 2753 3500
L 2753 2700
L 1797 2700
L 1797 0
L 678 0
L 678 2700
L 122 2700
L 122 3500
L 678 3500
L 678 3744
Q 678 4316 997 4589
Q 1316 4863 1984 4863
L 2841 4863
z
" transform="scale(0.015625)"/>
       <path id="DejaVuSans-Bold-65" d="M 4031 1759
L 4031 1441
L 1416 1441
Q 1456 1047 1700 850
Q 1944 653 2381 653
Q 2734 653 3104 758
Q 3475 863 3866 1075
L 3866 213
Q 3469 63 3072 -14
Q 2675 -91 2278 -91
Q 1328 -91 801 392
Q 275 875 275 1747
Q 275 2603 792 3093
Q 1309 3584 2216 3584
Q 3041 3584 3536 3087
Q 4031 2591 4031 1759
z
M 2881 2131
Q 2881 2450 2695 2645
Q 2509 2841 2209 2841
Q 1884 2841 1681 2658
Q 1478 2475 1428 2131
L 2881 2131
z
" transform="scale(0.015625)"/>
       <path id="DejaVuSans-Bold-72" d="M 3138 2547
Q 2991 2616 2845 2648
Q 2700 2681 2553 2681
Q 2122 2681 1889 2404
Q 1656 2128 1656 1613
L 1656 0
L 538 0
L 538 3500
L 1656 3500
L 1656 2925
Q 1872 3269 2151 3426
Q 2431 3584 2822 3584
Q 2878 3584 2943 3579
Q 3009 3575 3134 3559
L 3138 2547
z
" transform="scale(0.015625)"/>
       <path id="DejaVuSans-Bold-63" d="M 3366 3391
L 3366 2478
Q 3138 2634 2908 2709
Q 2678 2784 2431 2784
Q 1963 2784 1702 2511
Q 1441 2238 1441 1747
Q 1441 1256 1702 982
Q 1963 709 2431 709
Q 2694 709 2930 787
Q 3166 866 3366 1019
L 3366 103
Q 3103 6 2833 -42
Q 2563 -91 2291 -91
Q 1344 -91 809 395
Q 275 881 275 1747
Q 275 2613 809 3098
Q 1344 3584 2291 3584
Q 2566 3584 2833 3536
Q 3100 3488 3366 3391
z
" transform="scale(0.015625)"/>
       <path id="DejaVuSans-Bold-20" transform="scale(0.015625)"/>
       <path id="DejaVuSans-Bold-54" d="M 31 4666
L 4331 4666
L 4331 3756
L 2784 3756
L 2784 0
L 1581 0
L 1581 3756
L 31 3756
L 31 4666
z
" transform="scale(0.015625)"/>
       <path id="DejaVuSans-Bold-69" d="M 538 3500
L 1656 3500
L 1656 0
L 538 0
L 538 3500
z
M 538 4863
L 1656 4863
L 1656 3950
L 538 3950
L 538 4863
z
" transform="scale(0.015625)"/>
       <path id="DejaVuSans-Bold-6d" d="M 3781 2919
Q 3994 3244 4286 3414
Q 4578 3584 4928 3584
Q 5531 3584 5847 3212
Q 6163 2841 6163 2131
L 6163 0
L 5038 0
L 5038 1825
Q 5041 1866 5042 1909
Q 5044 1953 5044 2034
Q 5044 2406 4934 2573
Q 4825 2741 4581 2741
Q 4263 2741 4089 2478
Q 3916 2216 3909 1719
L 3909 0
L 2784 0
L 2784 1825
Q 2784 2406 2684 2573
Q 2584 2741 2328 2741
Q 2006 2741 1831 2477
Q 1656 2213 1656 1722
L 1656 0
L 531 0
L 531 3500
L 1656 3500
L 1656 2988
Q 1863 3284 2130 3434
Q 2397 3584 2719 3584
Q 3081 3584 3359 3409
Q 3638 3234 3781 2919
z
" transform="scale(0.015625)"/>
       <path id="DejaVuSans-Bold-70" d="M 1656 506
L 1656 -1331
L 538 -1331
L 538 3500
L 1656 3500
L 1656 2988
Q 1888 3294 2169 3439
Q 2450 3584 2816 3584
Q 3463 3584 3878 3070
Q 4294 2556 4294 1747
Q 4294 938 3878 423
Q 3463 -91 2816 -91
Q 2450 -91 2169 54
Q 1888 200 1656 506
z
M 2400 2772
Q 2041 2772 1848 2508
Q 1656 2244 1656 1747
Q 1656 1250 1848 986
Q 2041 722 2400 722
Q 2759 722 2948 984
Q 3138 1247 3138 1747
Q 3138 2247 2948 2509
Q 2759 2772 2400 2772
z
" transform="scale(0.015625)"/>
       <path id="DejaVuSans-Bold-61" d="M 2106 1575
Q 1756 1575 1579 1456
Q 1403 1338 1403 1106
Q 1403 894 1545 773
Q 1688 653 1941 653
Q 2256 653 2472 879
Q 2688 1106 2688 1447
L 2688 1575
L 2106 1575
z
M 3816 1997
L 3816 0
L 2688 0
L 2688 519
Q 2463 200 2181 54
Q 1900 -91 1497 -91
Q 953 -91 614 226
Q 275 544 275 1050
Q 275 1666 698 1953
Q 1122 2241 2028 2241
L 2688 2241
L 2688 2328
Q 2688 2594 2478 2717
Q 2269 2841 1825 2841
Q 1466 2841 1156 2769
Q 847 2697 581 2553
L 581 3406
Q 941 3494 1303 3539
Q 1666 3584 2028 3584
Q 2975 3584 3395 3211
Q 3816 2838 3816 1997
z
" transform="scale(0.015625)"/>
       <path id="DejaVuSans-Bold-67" d="M 2919 594
Q 2688 288 2409 144
Q 2131 0 1766 0
Q 1125 0 706 504
Q 288 1009 288 1791
Q 288 2575 706 3076
Q 1125 3578 1766 3578
Q 2131 3578 2409 3434
Q 2688 3291 2919 2981
L 2919 3500
L 4044 3500
L 4044 353
Q 4044 -491 3511 -936
Q 2978 -1381 1966 -1381
Q 1638 -1381 1331 -1331
Q 1025 -1281 716 -1178
L 716 -306
Q 1009 -475 1290 -558
Q 1572 -641 1856 -641
Q 2406 -641 2662 -400
Q 2919 -159 2919 353
L 2919 594
z
M 2181 2772
Q 1834 2772 1640 2515
Q 1447 2259 1447 1791
Q 1447 1309 1634 1061
Q 1822 813 2181 813
Q 2531 813 2725 1069
Q 2919 1325 2919 1791
Q 2919 2259 2725 2515
Q 2531 2772 2181 2772
z
" transform="scale(0.015625)"/>
       <path id="DejaVuSans-Bold-28" d="M 2413 -844
L 1484 -844
Q 1006 -72 778 623
Q 550 1319 550 2003
Q 550 2688 779 3389
Q 1009 4091 1484 4856
L 2413 4856
Q 2013 4116 1813 3408
Q 1613 2700 1613 2009
Q 1613 1319 1811 609
Q 2009 -100 2413 -844
z
" transform="scale(0.015625)"/>
       <path id="DejaVuSans-Bold-73" d="M 3272 3391
L 3272 2541
Q 2913 2691 2578 2766
Q 2244 2841 1947 2841
Q 1628 2841 1473 2761
Q 1319 2681 1319 2516
Q 1319 2381 1436 2309
Q 1553 2238 1856 2203
L 2053 2175
Q 2913 2066 3209 1816
Q 3506 1566 3506 1031
Q 3506 472 3093 190
Q 2681 -91 1863 -91
Q 1516 -91 1145 -36
Q 775 19 384 128
L 384 978
Q 719 816 1070 734
Q 1422 653 1784 653
Q 2113 653 2278 743
Q 2444 834 2444 1013
Q 2444 1163 2330 1236
Q 2216 1309 1875 1350
L 1678 1375
Q 931 1469 631 1722
Q 331 1975 331 2491
Q 331 3047 712 3315
Q 1094 3584 1881 3584
Q 2191 3584 2531 3537
Q 2872 3491 3272 3391
z
" transform="scale(0.015625)"/>
       <path id="DejaVuSans-Bold-29" d="M 513 -844
Q 913 -100 1113 609
Q 1313 1319 1313 2009
Q 1313 2700 1113 3408
Q 913 4116 513 4856
L 1441 4856
Q 1916 4091 2145 3389
Q 2375 2688 2375 2003
Q 2375 1319 2147 623
Q 1919 -72 1441 -844
L 513 -844
z
" transform="scale(0.015625)"/>
      </defs>
      <use xlink:href="#DejaVuSans-Bold-49"/>
      <use xlink:href="#DejaVuSans-Bold-6e" x="37.207031"/>
      <use xlink:href="#DejaVuSans-Bold-66" x="108.398438"/>
      <use xlink:href="#DejaVuSans-Bold-65" x="151.904297"/>
      <use xlink:href="#DejaVuSans-Bold-72" x="219.726562"/>
      <use xlink:href="#DejaVuSans-Bold-65" x="269.042969"/>
      <use xlink:href="#DejaVuSans-Bold-6e" x="336.865234"/>
      <use xlink:href="#DejaVuSans-Bold-63" x="408.056641"/>
      <use xlink:href="#DejaVuSans-Bold-65" x="467.333984"/>
      <use xlink:href="#DejaVuSans-Bold-20" x="535.15625"/>
      <use xlink:href="#DejaVuSans-Bold-54" x="569.970703"/>
      <use xlink:href="#DejaVuSans-Bold-69" x="638.183594"/>
      <use xlink:href="#DejaVuSans-Bold-6d" x="672.460938"/>
      <use xlink:href="#DejaVuSans-Bold-65" x="776.660156"/>
      <use xlink:href="#DejaVuSans-Bold-20" x="844.482422"/>
      <use xlink:href="#DejaVuSans-Bold-70" x="879.296875"/>
      <use xlink:href="#DejaVuSans-Bold-65" x="950.878906"/>
      <use xlink:href="#DejaVuSans-Bold-72" x="1018.701172"/>
      <use xlink:href="#DejaVuSans-Bold-20" x="1068.017578"/>
      <use xlink:href="#DejaVuSans-Bold-49" x="1102.832031"/>
      <use xlink:href="#DejaVuSans-Bold-6d" x="1140.039062"/>
      <use xlink:href="#DejaVuSans-Bold-61" x="1244.238281"/>
      <use xlink:href="#DejaVuSans-Bold-67" x="1311.71875"/>
      <use xlink:href="#DejaVuSans-Bold-65" x="1383.300781"/>
      <use xlink:href="#DejaVuSans-Bold-20" x="1451.123047"/>
      <use xlink:href="#DejaVuSans-Bold-28" x="1485.9375"/>
      <use xlink:href="#DejaVuSans-Bold-6d" x="1531.640625"/>
      <use xlink:href="#DejaVuSans-Bold-73" x="1635.839844"/>
      <use xlink:href="#DejaVuSans-Bold-29" x="1695.361328"/>
     </g>
    </g>
   </g>
   <g id="matplotlib.axis_2">
    <g id="ytick_1">
     <g id="line2d_9">
      <path d="M 42.6325 496.800312
L 848.3825 496.800312
" clip-path="url(#p6862c46ee0)" style="fill: none; stroke: #cccccc; stroke-opacity: 0.3; stroke-width: 0.8; stroke-linecap: round"/>
     </g>
     <g id="text_10">
      <!-- 20 -->
      <g style="fill: #262626" transform="translate(22.9075 500.599531) scale(0.1 -0.1)">
       <use xlink:href="#DejaVuSans-32"/>
       <use xlink:href="#DejaVuSans-30" x="63.623047"/>
      </g>
     </g>
    </g>
    <g id="ytick_2">
     <g id="line2d_10">
      <path d="M 42.6325 435.605312
L 848.3825 435.605312
" clip-path="url(#p6862c46ee0)" style="fill: none; stroke: #cccccc; stroke-opacity: 0.3; stroke-width: 0.8; stroke-linecap: round"/>
     </g>
     <g id="text_11">
      <!-- 30 -->
      <g style="fill: #262626" transform="translate(22.9075 439.404531) scale(0.1 -0.1)">
       <use xlink:href="#DejaVuSans-33"/>
       <use xlink:href="#DejaVuSans-30" x="63.623047"/>
      </g>
     </g>
    </g>
    <g id="ytick_3">
     <g id="line2d_11">
      <path d="M 42.6325 374.410312
L 848.3825 374.410312
" clip-path="url(#p6862c46ee0)" style="fill: none; stroke: #cccccc; stroke-opacity: 0.3; stroke-width: 0.8; stroke-linecap: round"/>
     </g>
     <g id="text_12">
      <!-- 40 -->
      <g style="fill: #262626" transform="translate(22.9075 378.209531) scale(0.1 -0.1)">
       <use xlink:href="#DejaVuSans-34"/>
       <use xlink:href="#DejaVuSans-30" x="63.623047"/>
      </g>
     </g>
    </g>
    <g id="ytick_4">
     <g id="line2d_12">
      <path d="M 42.6325 313.215312
L 848.3825 313.215312
" clip-path="url(#p6862c46ee0)" style="fill: none; stroke: #cccccc; stroke-opacity: 0.3; stroke-width: 0.8; stroke-linecap: round"/>
     </g>
     <g id="text_13">
      <!-- 50 -->
      <g style="fill: #262626" transform="translate(22.9075 317.014531) scale(0.1 -0.1)">
       <use xlink:href="#DejaVuSans-35"/>
       <use xlink:href="#DejaVuSans-30" x="63.623047"/>
      </g>
     </g>
    </g>
    <g id="ytick_5">
     <g id="line2d_13">
      <path d="M 42.6325 252.020312
L 848.3825 252.020312
" clip-path="url(#p6862c46ee0)" style="fill: none; stroke: #cccccc; stroke-opacity: 0.3; stroke-width: 0.8; stroke-linecap: round"/>
     </g>
     <g id="text_14">
      <!-- 60 -->
      <g style="fill: #262626" transform="translate(22.9075 255.819531) scale(0.1 -0.1)">
       <use xlink:href="#DejaVuSans-36"/>
       <use xlink:href="#DejaVuSans-30" x="63.623047"/>
      </g>
     </g>
    </g>
    <g id="ytick_6">
     <g id="line2d_14">
      <path d="M 42.6325 190.825312
L 848.3825 190.825312
" clip-path="url(#p6862c46ee0)" style="fill: none; stroke: #cccccc; stroke-opacity: 0.3; stroke-width: 0.8; stroke-linecap: round"/>
     </g>
     <g id="text_15">
      <!-- 70 -->
      <g style="fill: #262626" transform="translate(22.9075 194.624531) scale(0.1 -0.1)">
       <use xlink:href="#DejaVuSans-37"/>
       <use xlink:href="#DejaVuSans-30" x="63.623047"/>
      </g>
     </g>
    </g>
    <g id="ytick_7">
     <g id="line2d_15">
      <path d="M 42.6325 129.630312
L 848.3825 129.630312
" clip-path="url(#p6862c46ee0)" style="fill: none; stroke: #cccccc; stroke-opacity: 0.3; stroke-width: 0.8; stroke-linecap: round"/>
     </g>
     <g id="text_16">
      <!-- 80 -->
      <g style="fill: #262626" transform="translate(22.9075 133.429531) scale(0.1 -0.1)">
       <defs>
        <path id="DejaVuSans-38" d="M 2034 2216
Q 1584 2216 1326 1975
Q 1069 1734 1069 1313
Q 1069 891 1326 650
Q 1584 409 2034 409
Q 2484 409 2743 651
Q 3003 894 3003 1313
Q 3003 1734 2745 1975
Q 2488 2216 2034 2216
z
M 1403 2484
Q 997 2584 770 2862
Q 544 3141 544 3541
Q 544 4100 942 4425
Q 1341 4750 2034 4750
Q 2731 4750 3128 4425
Q 3525 4100 3525 3541
Q 3525 3141 3298 2862
Q 3072 2584 2669 2484
Q 3125 2378 3379 2068
Q 3634 1759 3634 1313
Q 3634 634 3220 271
Q 2806 -91 2034 -91
Q 1263 -91 848 271
Q 434 634 434 1313
Q 434 1759 690 2068
Q 947 2378 1403 2484
z
M 1172 3481
Q 1172 3119 1398 2916
Q 1625 2713 2034 2713
Q 2441 2713 2670 2916
Q 2900 3119 2900 3481
Q 2900 3844 2670 4047
Q 2441 4250 2034 4250
Q 1625 4250 1398 4047
Q 1172 3844 1172 3481
z
" transform="scale(0.015625)"/>
       </defs>
       <use xlink:href="#DejaVuSans-38"/>
       <use xlink:href="#DejaVuSans-30" x="63.623047"/>
      </g>
     </g>
    </g>
    <g id="ytick_8">
     <g id="line2d_16">
      <path d="M 42.6325 68.435312
L 848.3825 68.435312
" clip-path="url(#p6862c46ee0)" style="fill: none; stroke: #cccccc; stroke-opacity: 0.3; stroke-width: 0.8; stroke-linecap: round"/>
     </g>
     <g id="text_17">
      <!-- 90 -->
      <g style="fill: #262626" transform="translate(22.9075 72.234531) scale(0.1 -0.1)">
       <defs>
        <path id="DejaVuSans-39" d="M 703 97
L 703 672
Q 941 559 1184 500
Q 1428 441 1663 441
Q 2288 441 2617 861
Q 2947 1281 2994 2138
Q 2813 1869 2534 1725
Q 2256 1581 1919 1581
Q 1219 1581 811 2004
Q 403 2428 403 3163
Q 403 3881 828 4315
Q 1253 4750 1959 4750
Q 2769 4750 3195 4129
Q 3622 3509 3622 2328
Q 3622 1225 3098 567
Q 2575 -91 1691 -91
Q 1453 -91 1209 -44
Q 966 3 703 97
z
M 1959 2075
Q 2384 2075 2632 2365
Q 2881 2656 2881 3163
Q 2881 3666 2632 3958
Q 2384 4250 1959 4250
Q 1534 4250 1286 3958
Q 1038 3666 1038 3163
Q 1038 2656 1286 2365
Q 1534 2075 1959 2075
z
" transform="scale(0.015625)"/>
       </defs>
       <use xlink:href="#DejaVuSans-39"/>
       <use xlink:href="#DejaVuSans-30" x="63.623047"/>
      </g>
     </g>
    </g>
    <g id="text_18">
     <!-- Detection Accuracy / mAP (%) -->
     <g style="fill: #262626" transform="translate(16.318125 383.322187) rotate(-90) scale(0.12 -0.12)">
      <defs>
       <path id="DejaVuSans-Bold-44" d="M 1791 3756
L 1791 909
L 2222 909
Q 2959 909 3348 1275
Q 3738 1641 3738 2338
Q 3738 3031 3350 3393
Q 2963 3756 2222 3756
L 1791 3756
z
M 588 4666
L 1856 4666
Q 2919 4666 3439 4514
Q 3959 4363 4331 4000
Q 4659 3684 4818 3271
Q 4978 2859 4978 2338
Q 4978 1809 4818 1395
Q 4659 981 4331 666
Q 3956 303 3431 151
Q 2906 0 1856 0
L 588 0
L 588 4666
z
" transform="scale(0.015625)"/>
       <path id="DejaVuSans-Bold-74" d="M 1759 4494
L 1759 3500
L 2913 3500
L 2913 2700
L 1759 2700
L 1759 1216
Q 1759 972 1856 886
Q 1953 800 2241 800
L 2816 800
L 2816 0
L 1856 0
Q 1194 0 917 276
Q 641 553 641 1216
L 641 2700
L 84 2700
L 84 3500
L 641 3500
L 641 4494
L 1759 4494
z
" transform="scale(0.015625)"/>
       <path id="DejaVuSans-Bold-6f" d="M 2203 2784
Q 1831 2784 1636 2517
Q 1441 2250 1441 1747
Q 1441 1244 1636 976
Q 1831 709 2203 709
Q 2569 709 2762 976
Q 2956 1244 2956 1747
Q 2956 2250 2762 2517
Q 2569 2784 2203 2784
z
M 2203 3584
Q 3106 3584 3614 3096
Q 4122 2609 4122 1747
Q 4122 884 3614 396
Q 3106 -91 2203 -91
Q 1297 -91 786 396
Q 275 884 275 1747
Q 275 2609 786 3096
Q 1297 3584 2203 3584
z
" transform="scale(0.015625)"/>
       <path id="DejaVuSans-Bold-41" d="M 3419 850
L 1538 850
L 1241 0
L 31 0
L 1759 4666
L 3194 4666
L 4922 0
L 3713 0
L 3419 850
z
M 1838 1716
L 3116 1716
L 2478 3572
L 1838 1716
z
" transform="scale(0.015625)"/>
       <path id="DejaVuSans-Bold-75" d="M 500 1363
L 500 3500
L 1625 3500
L 1625 3150
Q 1625 2866 1622 2436
Q 1619 2006 1619 1863
Q 1619 1441 1641 1255
Q 1663 1069 1716 984
Q 1784 875 1895 815
Q 2006 756 2150 756
Q 2500 756 2700 1025
Q 2900 1294 2900 1772
L 2900 3500
L 4019 3500
L 4019 0
L 2900 0
L 2900 506
Q 2647 200 2364 54
Q 2081 -91 1741 -91
Q 1134 -91 817 281
Q 500 653 500 1363
z
" transform="scale(0.015625)"/>
       <path id="DejaVuSans-Bold-79" d="M 78 3500
L 1197 3500
L 2138 1125
L 2938 3500
L 4056 3500
L 2584 -331
Q 2363 -916 2067 -1148
Q 1772 -1381 1288 -1381
L 641 -1381
L 641 -647
L 991 -647
Q 1275 -647 1404 -556
Q 1534 -466 1606 -231
L 1638 -134
L 78 3500
z
" transform="scale(0.015625)"/>
       <path id="DejaVuSans-Bold-2f" d="M 1644 4666
L 2338 4666
L 691 -594
L 0 -594
L 1644 4666
z
" transform="scale(0.015625)"/>
       <path id="DejaVuSans-Bold-50" d="M 588 4666
L 2584 4666
Q 3475 4666 3951 4270
Q 4428 3875 4428 3144
Q 4428 2409 3951 2014
Q 3475 1619 2584 1619
L 1791 1619
L 1791 0
L 588 0
L 588 4666
z
M 1791 3794
L 1791 2491
L 2456 2491
Q 2806 2491 2997 2661
Q 3188 2831 3188 3144
Q 3188 3456 2997 3625
Q 2806 3794 2456 3794
L 1791 3794
z
" transform="scale(0.015625)"/>
       <path id="DejaVuSans-Bold-25" d="M 4959 1925
Q 4738 1925 4616 1733
Q 4494 1541 4494 1184
Q 4494 825 4614 633
Q 4734 441 4959 441
Q 5184 441 5303 633
Q 5422 825 5422 1184
Q 5422 1541 5301 1733
Q 5181 1925 4959 1925
z
M 4959 2450
Q 5541 2450 5875 2112
Q 6209 1775 6209 1184
Q 6209 594 5875 251
Q 5541 -91 4959 -91
Q 4378 -91 4042 251
Q 3706 594 3706 1184
Q 3706 1772 4042 2111
Q 4378 2450 4959 2450
z
M 2094 -91
L 1403 -91
L 4319 4750
L 5013 4750
L 2094 -91
z
M 1453 4750
Q 2034 4750 2367 4411
Q 2700 4072 2700 3481
Q 2700 2891 2367 2550
Q 2034 2209 1453 2209
Q 872 2209 539 2550
Q 206 2891 206 3481
Q 206 4072 539 4411
Q 872 4750 1453 4750
z
M 1453 4225
Q 1228 4225 1106 4031
Q 984 3838 984 3481
Q 984 3122 1106 2926
Q 1228 2731 1453 2731
Q 1678 2731 1798 2926
Q 1919 3122 1919 3481
Q 1919 3838 1797 4031
Q 1675 4225 1453 4225
z
" transform="scale(0.015625)"/>
      </defs>
      <use xlink:href="#DejaVuSans-Bold-44"/>
      <use xlink:href="#DejaVuSans-Bold-65" x="83.007812"/>
      <use xlink:href="#DejaVuSans-Bold-74" x="150.830078"/>
      <use xlink:href="#DejaVuSans-Bold-65" x="198.632812"/>
      <use xlink:href="#DejaVuSans-Bold-63" x="266.455078"/>
      <use xlink:href="#DejaVuSans-Bold-74" x="325.732422"/>
      <use xlink:href="#DejaVuSans-Bold-69" x="373.535156"/>
      <use xlink:href="#DejaVuSans-Bold-6f" x="407.8125"/>
      <use xlink:href="#DejaVuSans-Bold-6e" x="476.513672"/>
      <use xlink:href="#DejaVuSans-Bold-20" x="547.705078"/>
      <use xlink:href="#DejaVuSans-Bold-41" x="582.519531"/>
      <use xlink:href="#DejaVuSans-Bold-63" x="659.912109"/>
      <use xlink:href="#DejaVuSans-Bold-63" x="719.189453"/>
      <use xlink:href="#DejaVuSans-Bold-75" x="778.466797"/>
      <use xlink:href="#DejaVuSans-Bold-72" x="849.658203"/>
      <use xlink:href="#DejaVuSans-Bold-61" x="898.974609"/>
      <use xlink:href="#DejaVuSans-Bold-63" x="966.455078"/>
      <use xlink:href="#DejaVuSans-Bold-79" x="1025.732422"/>
      <use xlink:href="#DejaVuSans-Bold-20" x="1090.917969"/>
      <use xlink:href="#DejaVuSans-Bold-2f" x="1125.732422"/>
      <use xlink:href="#DejaVuSans-Bold-20" x="1162.255859"/>
      <use xlink:href="#DejaVuSans-Bold-6d" x="1197.070312"/>
      <use xlink:href="#DejaVuSans-Bold-41" x="1301.269531"/>
      <use xlink:href="#DejaVuSans-Bold-50" x="1378.662109"/>
      <use xlink:href="#DejaVuSans-Bold-20" x="1451.953125"/>
      <use xlink:href="#DejaVuSans-Bold-28" x="1486.767578"/>
      <use xlink:href="#DejaVuSans-Bold-25" x="1532.470703"/>
      <use xlink:href="#DejaVuSans-Bold-29" x="1632.666016"/>
     </g>
    </g>
   </g>
   <g id="PathCollection_1">
    <defs>
     <path id="C0_0_cef15679dc" d="M 0 8.660254
C 2.296726 8.660254 4.499694 7.747755 6.123724 6.123724
C 7.747755 4.499694 8.660254 2.296726 8.660254 -0
C 8.660254 -2.296726 7.747755 -4.499694 6.123724 -6.123724
C 4.499694 -7.747755 2.296726 -8.660254 0 -8.660254
C -2.296726 -8.660254 -4.499694 -7.747755 -6.123724 -6.123724
C -7.747755 -4.499694 -8.660254 -2.296726 -8.660254 0
C -8.660254 2.296726 -7.747755 4.499694 -6.123724 6.123724
C -4.499694 7.747755 -2.296726 8.660254 0 8.660254
z
"/>
    </defs>
    <g clip-path="url(#p6862c46ee0)">
     <use xlink:href="#C0_0_cef15679dc" x="110.650357" y="447.844312" style="fill: #1f77b4; fill-opacity: 0.6; stroke: #000000; stroke-opacity: 0.6; stroke-width: 1.5"/>
    </g>
    <g clip-path="url(#p6862c46ee0)">
     <use xlink:href="#C0_0_cef15679dc" x="257.150357" y="362.171312" style="fill: #1f77b4; fill-opacity: 0.6; stroke: #000000; stroke-opacity: 0.6; stroke-width: 1.5"/>
    </g>
    <g clip-path="url(#p6862c46ee0)">
     <use xlink:href="#C0_0_cef15679dc" x="194.364643" y="264.259312" style="fill: #2ca02c; fill-opacity: 0.6; stroke: #000000; stroke-opacity: 0.6; stroke-width: 1.5"/>
    </g>
    <g clip-path="url(#p6862c46ee0)">
     <use xlink:href="#C0_0_cef15679dc" x="351.328929" y="178.586312" style="fill: #2ca02c; fill-opacity: 0.6; stroke: #000000; stroke-opacity: 0.6; stroke-width: 1.5"/>
    </g>
    <g clip-path="url(#p6862c46ee0)">
     <use xlink:href="#C0_0_cef15679dc" x="523.989643" y="123.510812" style="fill: #ff7f0e; fill-opacity: 0.6; stroke: #000000; stroke-opacity: 0.6; stroke-width: 1.5"/>
    </g>
    <g clip-path="url(#p6862c46ee0)">
     <use xlink:href="#C0_0_cef15679dc" x="743.739643" y="92.913312" style="fill: #d62728; fill-opacity: 0.6; stroke: #000000; stroke-opacity: 0.6; stroke-width: 1.5"/>
    </g>
   </g>
   <g id="patch_3">
    <path d="M 42.6325 527.397812
L 42.6325 37.837812
" style="fill: none; stroke: #cccccc; stroke-width: 0.8; stroke-linejoin: miter; stroke-linecap: square"/>
   </g>
   <g id="patch_4">
    <path d="M 848.3825 527.397812
L 848.3825 37.837812
" style="fill: none; stroke: #cccccc; stroke-width: 0.8; stroke-linejoin: miter; stroke-linecap: square"/>
   </g>
   <g id="patch_5">
    <path d="M 42.6325 527.397812
L 848.3825 527.397812
" style="fill: none; stroke: #cccccc; stroke-width: 0.8; stroke-linejoin: miter; stroke-linecap: square"/>
   </g>
   <g id="patch_6">
    <path d="M 42.6325 37.837812
L 848.3825 37.837812
" style="fill: none; stroke: #cccccc; stroke-width: 0.8; stroke-linejoin: miter; stroke-linecap: square"/>
   </g>
   <g id="patch_7">
    <path d="M 114.774766 444.230824
Q 113.464743 445.378566 112.575188 446.157924
" style="fill: none; stroke: #ffffff; stroke-width: 0.5; stroke-linecap: round"/>
    <path d="M 116.469126 445.139471
L 112.575188 446.157924
L 114.096788 442.431702
" style="fill: none; stroke: #ffffff; stroke-width: 0.5; stroke-linecap: round"/>
   </g>
   <g id="text_19">
    <g id="patch_8">
     <path d="M 91.543951 442.416031
L 169.756763 442.416031
Q 172.456763 442.416031 172.456763 439.716031
L 172.456763 420.927687
Q 172.456763 418.227687 169.756763 418.227687
L 91.543951 418.227687
Q 88.843951 418.227687 88.843951 420.927687
L 88.843951 439.716031
Q 88.843951 442.416031 91.543951 442.416031
z
" style="fill: #ffff00; opacity: 0.1; stroke: #ffffff; stroke-linejoin: miter"/>
    </g>
    <!-- Naive Segmenter -->
    <g style="fill: #262626" transform="translate(91.543951 427.766281) scale(0.09 -0.09)">
     <defs>
      <path id="DejaVuSans-4e" d="M 628 4666
L 1478 4666
L 3547 763
L 3547 4666
L 4159 4666
L 4159 0
L 3309 0
L 1241 3903
L 1241 0
L 628 0
L 628 4666
z
" transform="scale(0.015625)"/>
      <path id="DejaVuSans-61" d="M 2194 1759
Q 1497 1759 1228 1600
Q 959 1441 959 1056
Q 959 750 1161 570
Q 1363 391 1709 391
Q 2188 391 2477 730
Q 2766 1069 2766 1631
L 2766 1759
L 2194 1759
z
M 3341 1997
L 3341 0
L 2766 0
L 2766 531
Q 2569 213 2275 61
Q 1981 -91 1556 -91
Q 1019 -91 701 211
Q 384 513 384 1019
Q 384 1609 779 1909
Q 1175 2209 1959 2209
L 2766 2209
L 2766 2266
Q 2766 2663 2505 2880
Q 2244 3097 1772 3097
Q 1472 3097 1187 3025
Q 903 2953 641 2809
L 641 3341
Q 956 3463 1253 3523
Q 1550 3584 1831 3584
Q 2591 3584 2966 3190
Q 3341 2797 3341 1997
z
" transform="scale(0.015625)"/>
      <path id="DejaVuSans-69" d="M 603 3500
L 1178 3500
L 1178 0
L 603 0
L 603 3500
z
M 603 4863
L 1178 4863
L 1178 4134
L 603 4134
L 603 4863
z
" transform="scale(0.015625)"/>
      <path id="DejaVuSans-76" d="M 191 3500
L 800 3500
L 1894 563
L 2988 3500
L 3597 3500
L 2284 0
L 1503 0
L 191 3500
z
" transform="scale(0.015625)"/>
      <path id="DejaVuSans-65" d="M 3597 1894
L 3597 1613
L 953 1613
Q 991 1019 1311 708
Q 1631 397 2203 397
Q 2534 397 2845 478
Q 3156 559 3463 722
L 3463 178
Q 3153 47 2828 -22
Q 2503 -91 2169 -91
Q 1331 -91 842 396
Q 353 884 353 1716
Q 353 2575 817 3079
Q 1281 3584 2069 3584
Q 2775 3584 3186 3129
Q 3597 2675 3597 1894
z
M 3022 2063
Q 3016 2534 2758 2815
Q 2500 3097 2075 3097
Q 1594 3097 1305 2825
Q 1016 2553 972 2059
L 3022 2063
z
" transform="scale(0.015625)"/>
      <path id="DejaVuSans-20" transform="scale(0.015625)"/>
      <path id="DejaVuSans-53" d="M 3425 4513
L 3425 3897
Q 3066 4069 2747 4153
Q 2428 4238 2131 4238
Q 1616 4238 1336 4038
Q 1056 3838 1056 3469
Q 1056 3159 1242 3001
Q 1428 2844 1947 2747
L 2328 2669
Q 3034 2534 3370 2195
Q 3706 1856 3706 1288
Q 3706 609 3251 259
Q 2797 -91 1919 -91
Q 1588 -91 1214 -16
Q 841 59 441 206
L 441 856
Q 825 641 1194 531
Q 1563 422 1919 422
Q 2459 422 2753 634
Q 3047 847 3047 1241
Q 3047 1584 2836 1778
Q 2625 1972 2144 2069
L 1759 2144
Q 1053 2284 737 2584
Q 422 2884 422 3419
Q 422 4038 858 4394
Q 1294 4750 2059 4750
Q 2388 4750 2728 4690
Q 3069 4631 3425 4513
z
" transform="scale(0.015625)"/>
      <path id="DejaVuSans-67" d="M 2906 1791
Q 2906 2416 2648 2759
Q 2391 3103 1925 3103
Q 1463 3103 1205 2759
Q 947 2416 947 1791
Q 947 1169 1205 825
Q 1463 481 1925 481
Q 2391 481 2648 825
Q 2906 1169 2906 1791
z
M 3481 434
Q 3481 -459 3084 -895
Q 2688 -1331 1869 -1331
Q 1566 -1331 1297 -1286
Q 1028 -1241 775 -1147
L 775 -588
Q 1028 -725 1275 -790
Q 1522 -856 1778 -856
Q 2344 -856 2625 -561
Q 2906 -266 2906 331
L 2906 616
Q 2728 306 2450 153
Q 2172 0 1784 0
Q 1141 0 747 490
Q 353 981 353 1791
Q 353 2603 747 3093
Q 1141 3584 1784 3584
Q 2172 3584 2450 3431
Q 2728 3278 2906 2969
L 2906 3500
L 3481 3500
L 3481 434
z
" transform="scale(0.015625)"/>
      <path id="DejaVuSans-6d" d="M 3328 2828
Q 3544 3216 3844 3400
Q 4144 3584 4550 3584
Q 5097 3584 5394 3201
Q 5691 2819 5691 2113
L 5691 0
L 5113 0
L 5113 2094
Q 5113 2597 4934 2840
Q 4756 3084 4391 3084
Q 3944 3084 3684 2787
Q 3425 2491 3425 1978
L 3425 0
L 2847 0
L 2847 2094
Q 2847 2600 2669 2842
Q 2491 3084 2119 3084
Q 1678 3084 1418 2786
Q 1159 2488 1159 1978
L 1159 0
L 581 0
L 581 3500
L 1159 3500
L 1159 2956
Q 1356 3278 1631 3431
Q 1906 3584 2284 3584
Q 2666 3584 2933 3390
Q 3200 3197 3328 2828
z
" transform="scale(0.015625)"/>
      <path id="DejaVuSans-6e" d="M 3513 2113
L 3513 0
L 2938 0
L 2938 2094
Q 2938 2591 2744 2837
Q 2550 3084 2163 3084
Q 1697 3084 1428 2787
Q 1159 2491 1159 1978
L 1159 0
L 581 0
L 581 3500
L 1159 3500
L 1159 2956
Q 1366 3272 1645 3428
Q 1925 3584 2291 3584
Q 2894 3584 3203 3211
Q 3513 2838 3513 2113
z
" transform="scale(0.015625)"/>
      <path id="DejaVuSans-74" d="M 1172 4494
L 1172 3500
L 2356 3500
L 2356 3053
L 1172 3053
L 1172 1153
Q 1172 725 1289 603
Q 1406 481 1766 481
L 2356 481
L 2356 0
L 1766 0
Q 1100 0 847 248
Q 594 497 594 1153
L 594 3053
L 172 3053
L 172 3500
L 594 3500
L 594 4494
L 1172 4494
z
" transform="scale(0.015625)"/>
      <path id="DejaVuSans-72" d="M 2631 2963
Q 2534 3019 2420 3045
Q 2306 3072 2169 3072
Q 1681 3072 1420 2755
Q 1159 2438 1159 1844
L 1159 0
L 581 0
L 581 3500
L 1159 3500
L 1159 2956
Q 1341 3275 1631 3429
Q 1922 3584 2338 3584
Q 2397 3584 2469 3576
Q 2541 3569 2628 3553
L 2631 2963
z
" transform="scale(0.015625)"/>
     </defs>
     <use xlink:href="#DejaVuSans-4e"/>
     <use xlink:href="#DejaVuSans-61" x="74.804688"/>
     <use xlink:href="#DejaVuSans-69" x="136.083984"/>
     <use xlink:href="#DejaVuSans-76" x="163.867188"/>
     <use xlink:href="#DejaVuSans-65" x="223.046875"/>
     <use xlink:href="#DejaVuSans-20" x="284.570312"/>
     <use xlink:href="#DejaVuSans-53" x="316.357422"/>
     <use xlink:href="#DejaVuSans-65" x="379.833984"/>
     <use xlink:href="#DejaVuSans-67" x="441.357422"/>
     <use xlink:href="#DejaVuSans-6d" x="504.833984"/>
     <use xlink:href="#DejaVuSans-65" x="602.246094"/>
     <use xlink:href="#DejaVuSans-6e" x="663.769531"/>
     <use xlink:href="#DejaVuSans-74" x="727.148438"/>
     <use xlink:href="#DejaVuSans-65" x="766.357422"/>
     <use xlink:href="#DejaVuSans-72" x="827.880859"/>
    </g>
    <!-- + Avg Color -->
    <g style="fill: #262626" transform="translate(103.935826 437.844312) scale(0.09 -0.09)">
     <defs>
      <path id="DejaVuSans-2b" d="M 2944 4013
L 2944 2272
L 4684 2272
L 4684 1741
L 2944 1741
L 2944 0
L 2419 0
L 2419 1741
L 678 1741
L 678 2272
L 2419 2272
L 2419 4013
L 2944 4013
z
" transform="scale(0.015625)"/>
      <path id="DejaVuSans-41" d="M 2188 4044
L 1331 1722
L 3047 1722
L 2188 4044
z
M 1831 4666
L 2547 4666
L 4325 0
L 3669 0
L 3244 1197
L 1141 1197
L 716 0
L 50 0
L 1831 4666
z
" transform="scale(0.015625)"/>
      <path id="DejaVuSans-43" d="M 4122 4306
L 4122 3641
Q 3803 3938 3442 4084
Q 3081 4231 2675 4231
Q 1875 4231 1450 3742
Q 1025 3253 1025 2328
Q 1025 1406 1450 917
Q 1875 428 2675 428
Q 3081 428 3442 575
Q 3803 722 4122 1019
L 4122 359
Q 3791 134 3420 21
Q 3050 -91 2638 -91
Q 1578 -91 968 557
Q 359 1206 359 2328
Q 359 3453 968 4101
Q 1578 4750 2638 4750
Q 3056 4750 3426 4639
Q 3797 4528 4122 4306
z
" transform="scale(0.015625)"/>
      <path id="DejaVuSans-6f" d="M 1959 3097
Q 1497 3097 1228 2736
Q 959 2375 959 1747
Q 959 1119 1226 758
Q 1494 397 1959 397
Q 2419 397 2687 759
Q 2956 1122 2956 1747
Q 2956 2369 2687 2733
Q 2419 3097 1959 3097
z
M 1959 3584
Q 2709 3584 3137 3096
Q 3566 2609 3566 1747
Q 3566 888 3137 398
Q 2709 -91 1959 -91
Q 1206 -91 779 398
Q 353 888 353 1747
Q 353 2609 779 3096
Q 1206 3584 1959 3584
z
" transform="scale(0.015625)"/>
      <path id="DejaVuSans-6c" d="M 603 4863
L 1178 4863
L 1178 0
L 603 0
L 603 4863
z
" transform="scale(0.015625)"/>
     </defs>
     <use xlink:href="#DejaVuSans-2b"/>
     <use xlink:href="#DejaVuSans-20" x="83.789062"/>
     <use xlink:href="#DejaVuSans-41" x="115.576172"/>
     <use xlink:href="#DejaVuSans-76" x="178.109375"/>
     <use xlink:href="#DejaVuSans-67" x="237.289062"/>
     <use xlink:href="#DejaVuSans-20" x="300.765625"/>
     <use xlink:href="#DejaVuSans-43" x="332.552734"/>
     <use xlink:href="#DejaVuSans-6f" x="402.376953"/>
     <use xlink:href="#DejaVuSans-6c" x="463.558594"/>
     <use xlink:href="#DejaVuSans-6f" x="491.341797"/>
     <use xlink:href="#DejaVuSans-72" x="552.523438"/>
    </g>
   </g>
   <g id="patch_9">
    <path d="M 240.77888 357.317889
Q 248.007351 359.460813 254.69986 361.444848
" style="fill: none; stroke: #ffffff; stroke-width: 0.5; stroke-linecap: round"/>
    <path d="M 251.75995 358.695861
L 254.69986 361.444848
L 250.736725 362.147384
" style="fill: none; stroke: #ffffff; stroke-width: 0.5; stroke-linecap: round"/>
   </g>
   <g id="text_20">
    <g id="patch_10">
     <path d="M 158.937545 356.743031
L 237.150357 356.743031
Q 239.850357 356.743031 239.850357 354.043031
L 239.850357 335.254687
Q 239.850357 332.554687 237.150357 332.554687
L 158.937545 332.554687
Q 156.237545 332.554687 156.237545 335.254687
L 156.237545 354.043031
Q 156.237545 356.743031 158.937545 356.743031
z
" style="fill: #ffff00; opacity: 0.1; stroke: #ffffff; stroke-linejoin: miter"/>
    </g>
    <!-- Naive Segmenter -->
    <g style="fill: #262626" transform="translate(158.937545 342.093281) scale(0.09 -0.09)">
     <use xlink:href="#DejaVuSans-4e"/>
     <use xlink:href="#DejaVuSans-61" x="74.804688"/>
     <use xlink:href="#DejaVuSans-69" x="136.083984"/>
     <use xlink:href="#DejaVuSans-76" x="163.867188"/>
     <use xlink:href="#DejaVuSans-65" x="223.046875"/>
     <use xlink:href="#DejaVuSans-20" x="284.570312"/>
     <use xlink:href="#DejaVuSans-53" x="316.357422"/>
     <use xlink:href="#DejaVuSans-65" x="379.833984"/>
     <use xlink:href="#DejaVuSans-67" x="441.357422"/>
     <use xlink:href="#DejaVuSans-6d" x="504.833984"/>
     <use xlink:href="#DejaVuSans-65" x="602.246094"/>
     <use xlink:href="#DejaVuSans-6e" x="663.769531"/>
     <use xlink:href="#DejaVuSans-74" x="727.148438"/>
     <use xlink:href="#DejaVuSans-65" x="766.357422"/>
     <use xlink:href="#DejaVuSans-72" x="827.880859"/>
    </g>
    <!-- + CLIP -->
    <g style="fill: #262626" transform="translate(207.367388 352.171312) scale(0.09 -0.09)">
     <defs>
      <path id="DejaVuSans-4c" d="M 628 4666
L 1259 4666
L 1259 531
L 3531 531
L 3531 0
L 628 0
L 628 4666
z
" transform="scale(0.015625)"/>
      <path id="DejaVuSans-49" d="M 628 4666
L 1259 4666
L 1259 0
L 628 0
L 628 4666
z
" transform="scale(0.015625)"/>
      <path id="DejaVuSans-50" d="M 1259 4147
L 1259 2394
L 2053 2394
Q 2494 2394 2734 2622
Q 2975 2850 2975 3272
Q 2975 3691 2734 3919
Q 2494 4147 2053 4147
L 1259 4147
z
M 628 4666
L 2053 4666
Q 2838 4666 3239 4311
Q 3641 3956 3641 3272
Q 3641 2581 3239 2228
Q 2838 1875 2053 1875
L 1259 1875
L 1259 0
L 628 0
L 628 4666
z
" transform="scale(0.015625)"/>
     </defs>
     <use xlink:href="#DejaVuSans-2b"/>
     <use xlink:href="#DejaVuSans-20" x="83.789062"/>
     <use xlink:href="#DejaVuSans-43" x="115.576172"/>
     <use xlink:href="#DejaVuSans-4c" x="185.400391"/>
     <use xlink:href="#DejaVuSans-49" x="241.113281"/>
     <use xlink:href="#DejaVuSans-50" x="270.605469"/>
    </g>
   </g>
   <g id="patch_11">
    <path d="M 198.489052 260.645824
Q 197.179028 261.793566 196.289474 262.572924
" style="fill: none; stroke: #ffffff; stroke-width: 0.5; stroke-linecap: round"/>
    <path d="M 200.183412 261.554471
L 196.289474 262.572924
L 197.811074 258.846702
" style="fill: none; stroke: #ffffff; stroke-width: 0.5; stroke-linecap: round"/>
   </g>
   <g id="text_21">
    <g id="patch_12">
     <path d="M 187.650112 258.831031
L 241.079174 258.831031
Q 243.779174 258.831031 243.779174 256.131031
L 243.779174 237.342687
Q 243.779174 234.642687 241.079174 234.642687
L 187.650112 234.642687
Q 184.950112 234.642687 184.950112 237.342687
L 184.950112 256.131031
Q 184.950112 258.831031 187.650112 258.831031
z
" style="fill: #ffff00; opacity: 0.1; stroke: #ffffff; stroke-linejoin: miter"/>
    </g>
    <!-- SAM2 Small -->
    <g style="fill: #262626" transform="translate(187.671205 244.181281) scale(0.09 -0.09)">
     <defs>
      <path id="DejaVuSans-4d" d="M 628 4666
L 1569 4666
L 2759 1491
L 3956 4666
L 4897 4666
L 4897 0
L 4281 0
L 4281 4097
L 3078 897
L 2444 897
L 1241 4097
L 1241 0
L 628 0
L 628 4666
z
" transform="scale(0.015625)"/>
     </defs>
     <use xlink:href="#DejaVuSans-53"/>
     <use xlink:href="#DejaVuSans-41" x="65.351562"/>
     <use xlink:href="#DejaVuSans-4d" x="133.759766"/>
     <use xlink:href="#DejaVuSans-32" x="220.039062"/>
     <use xlink:href="#DejaVuSans-20" x="283.662109"/>
     <use xlink:href="#DejaVuSans-53" x="315.449219"/>
     <use xlink:href="#DejaVuSans-6d" x="378.925781"/>
     <use xlink:href="#DejaVuSans-61" x="476.337891"/>
     <use xlink:href="#DejaVuSans-6c" x="537.617188"/>
     <use xlink:href="#DejaVuSans-6c" x="565.400391"/>
    </g>
    <!-- + Avg Color -->
    <g style="fill: #262626" transform="translate(187.650112 254.259312) scale(0.09 -0.09)">
     <use xlink:href="#DejaVuSans-2b"/>
     <use xlink:href="#DejaVuSans-20" x="83.789062"/>
     <use xlink:href="#DejaVuSans-41" x="115.576172"/>
     <use xlink:href="#DejaVuSans-76" x="178.109375"/>
     <use xlink:href="#DejaVuSans-67" x="237.289062"/>
     <use xlink:href="#DejaVuSans-20" x="300.765625"/>
     <use xlink:href="#DejaVuSans-43" x="332.552734"/>
     <use xlink:href="#DejaVuSans-6f" x="402.376953"/>
     <use xlink:href="#DejaVuSans-6c" x="463.558594"/>
     <use xlink:href="#DejaVuSans-6f" x="491.341797"/>
     <use xlink:href="#DejaVuSans-72" x="552.523438"/>
    </g>
   </g>
   <g id="patch_13">
    <path d="M 335.962555 172.819837
Q 342.709729 175.351821 348.933524 177.687399
" style="fill: none; stroke: #ffffff; stroke-width: 0.5; stroke-linecap: round"/>
    <path d="M 346.195449 174.737324
L 348.933524 177.687399
L 344.930619 178.107814
" style="fill: none; stroke: #ffffff; stroke-width: 0.5; stroke-linecap: round"/>
   </g>
   <g id="text_22">
    <g id="patch_14">
     <path d="M 277.942054 173.158031
L 331.328929 173.158031
Q 334.028929 173.158031 334.028929 170.458031
L 334.028929 151.669687
Q 334.028929 148.969687 331.328929 148.969687
L 277.942054 148.969687
Q 275.242054 148.969687 275.242054 151.669687
L 275.242054 170.458031
Q 275.242054 173.158031 277.942054 173.158031
z
" style="fill: #ffff00; opacity: 0.1; stroke: #ffffff; stroke-linejoin: miter"/>
    </g>
    <!-- SAM2 Small -->
    <g style="fill: #262626" transform="translate(277.942054 158.508281) scale(0.09 -0.09)">
     <use xlink:href="#DejaVuSans-53"/>
     <use xlink:href="#DejaVuSans-41" x="65.351562"/>
     <use xlink:href="#DejaVuSans-4d" x="133.759766"/>
     <use xlink:href="#DejaVuSans-32" x="220.039062"/>
     <use xlink:href="#DejaVuSans-20" x="283.662109"/>
     <use xlink:href="#DejaVuSans-53" x="315.449219"/>
     <use xlink:href="#DejaVuSans-6d" x="378.925781"/>
     <use xlink:href="#DejaVuSans-61" x="476.337891"/>
     <use xlink:href="#DejaVuSans-6c" x="537.617188"/>
     <use xlink:href="#DejaVuSans-6c" x="565.400391"/>
    </g>
    <!-- + CLIP -->
    <g style="fill: #262626" transform="translate(301.54596 168.586312) scale(0.09 -0.09)">
     <use xlink:href="#DejaVuSans-2b"/>
     <use xlink:href="#DejaVuSans-20" x="83.789062"/>
     <use xlink:href="#DejaVuSans-43" x="115.576172"/>
     <use xlink:href="#DejaVuSans-4c" x="185.400391"/>
     <use xlink:href="#DejaVuSans-49" x="241.113281"/>
     <use xlink:href="#DejaVuSans-50" x="270.605469"/>
    </g>
   </g>
   <g id="patch_15">
    <path d="M 528.114052 119.897324
Q 526.804028 121.045066 525.914474 121.824424
" style="fill: none; stroke: #ffffff; stroke-width: 0.5; stroke-linecap: round"/>
    <path d="M 529.808412 120.805971
L 525.914474 121.824424
L 527.436074 118.098202
" style="fill: none; stroke: #ffffff; stroke-width: 0.5; stroke-linecap: round"/>
   </g>
   <g id="text_23">
    <g id="patch_16">
     <path d="M 518.836049 118.082531
L 569.143237 118.082531
Q 571.843237 118.082531 571.843237 115.382531
L 571.843237 96.594187
Q 571.843237 93.894187 569.143237 93.894187
L 518.836049 93.894187
Q 516.136049 93.894187 516.136049 96.594187
L 516.136049 115.382531
Q 516.136049 118.082531 518.836049 118.082531
z
" style="fill: #ffff00; opacity: 0.1; stroke: #ffffff; stroke-linejoin: miter"/>
    </g>
    <!-- SAM2 Base -->
    <g style="fill: #262626" transform="translate(518.836049 103.432781) scale(0.09 -0.09)">
     <defs>
      <path id="DejaVuSans-42" d="M 1259 2228
L 1259 519
L 2272 519
Q 2781 519 3026 730
Q 3272 941 3272 1375
Q 3272 1813 3026 2020
Q 2781 2228 2272 2228
L 1259 2228
z
M 1259 4147
L 1259 2741
L 2194 2741
Q 2656 2741 2882 2914
Q 3109 3088 3109 3444
Q 3109 3797 2882 3972
Q 2656 4147 2194 4147
L 1259 4147
z
M 628 4666
L 2241 4666
Q 2963 4666 3353 4366
Q 3744 4066 3744 3513
Q 3744 3084 3544 2831
Q 3344 2578 2956 2516
Q 3422 2416 3680 2098
Q 3938 1781 3938 1306
Q 3938 681 3513 340
Q 3088 0 2303 0
L 628 0
L 628 4666
z
" transform="scale(0.015625)"/>
      <path id="DejaVuSans-73" d="M 2834 3397
L 2834 2853
Q 2591 2978 2328 3040
Q 2066 3103 1784 3103
Q 1356 3103 1142 2972
Q 928 2841 928 2578
Q 928 2378 1081 2264
Q 1234 2150 1697 2047
L 1894 2003
Q 2506 1872 2764 1633
Q 3022 1394 3022 966
Q 3022 478 2636 193
Q 2250 -91 1575 -91
Q 1294 -91 989 -36
Q 684 19 347 128
L 347 722
Q 666 556 975 473
Q 1284 391 1588 391
Q 1994 391 2212 530
Q 2431 669 2431 922
Q 2431 1156 2273 1281
Q 2116 1406 1581 1522
L 1381 1569
Q 847 1681 609 1914
Q 372 2147 372 2553
Q 372 3047 722 3315
Q 1072 3584 1716 3584
Q 2034 3584 2315 3537
Q 2597 3491 2834 3397
z
" transform="scale(0.015625)"/>
     </defs>
     <use xlink:href="#DejaVuSans-53"/>
     <use xlink:href="#DejaVuSans-41" x="65.351562"/>
     <use xlink:href="#DejaVuSans-4d" x="133.759766"/>
     <use xlink:href="#DejaVuSans-32" x="220.039062"/>
     <use xlink:href="#DejaVuSans-20" x="283.662109"/>
     <use xlink:href="#DejaVuSans-42" x="315.449219"/>
     <use xlink:href="#DejaVuSans-61" x="384.052734"/>
     <use xlink:href="#DejaVuSans-73" x="445.332031"/>
     <use xlink:href="#DejaVuSans-65" x="497.431641"/>
    </g>
    <!-- + CLIP -->
    <g style="fill: #262626" transform="translate(529.098158 113.510812) scale(0.09 -0.09)">
     <use xlink:href="#DejaVuSans-2b"/>
     <use xlink:href="#DejaVuSans-20" x="83.789062"/>
     <use xlink:href="#DejaVuSans-43" x="115.576172"/>
     <use xlink:href="#DejaVuSans-4c" x="185.400391"/>
     <use xlink:href="#DejaVuSans-49" x="241.113281"/>
     <use xlink:href="#DejaVuSans-50" x="270.605469"/>
    </g>
   </g>
   <g id="patch_17">
    <path d="M 728.360143 87.16209
Q 735.11308 89.687376 741.342413 92.016859
" style="fill: none; stroke: #ffffff; stroke-width: 0.5; stroke-linecap: round"/>
    <path d="M 738.600946 89.069937
L 741.342413 92.016859
L 737.339995 92.44188
" style="fill: none; stroke: #ffffff; stroke-width: 0.5; stroke-linecap: round"/>
   </g>
   <g id="text_24">
    <g id="patch_18">
     <path d="M 670.025112 87.485031
L 723.739643 87.485031
Q 726.439643 87.485031 726.439643 84.785031
L 726.439643 65.996687
Q 726.439643 63.296687 723.739643 63.296687
L 670.025112 63.296687
Q 667.325112 63.296687 667.325112 65.996687
L 667.325112 84.785031
Q 667.325112 87.485031 670.025112 87.485031
z
" style="fill: #ffff00; opacity: 0.1; stroke: #ffffff; stroke-linejoin: miter"/>
    </g>
    <!-- SAM2 Large -->
    <g style="fill: #262626" transform="translate(670.025112 72.835281) scale(0.09 -0.09)">
     <use xlink:href="#DejaVuSans-53"/>
     <use xlink:href="#DejaVuSans-41" x="65.351562"/>
     <use xlink:href="#DejaVuSans-4d" x="133.759766"/>
     <use xlink:href="#DejaVuSans-32" x="220.039062"/>
     <use xlink:href="#DejaVuSans-20" x="283.662109"/>
     <use xlink:href="#DejaVuSans-4c" x="315.449219"/>
     <use xlink:href="#DejaVuSans-61" x="371.162109"/>
     <use xlink:href="#DejaVuSans-72" x="432.441406"/>
     <use xlink:href="#DejaVuSans-67" x="471.804688"/>
     <use xlink:href="#DejaVuSans-65" x="535.28125"/>
    </g>
    <!-- + CLIP -->
    <g style="fill: #262626" transform="translate(693.956674 82.913312) scale(0.09 -0.09)">
     <use xlink:href="#DejaVuSans-2b"/>
     <use xlink:href="#DejaVuSans-20" x="83.789062"/>
     <use xlink:href="#DejaVuSans-43" x="115.576172"/>
     <use xlink:href="#DejaVuSans-4c" x="185.400391"/>
     <use xlink:href="#DejaVuSans-49" x="241.113281"/>
     <use xlink:href="#DejaVuSans-50" x="270.605469"/>
    </g>
   </g>
   <g id="text_25">
    <g id="patch_19">
     <path d="M 58.7475 520.306612
L 389.853281 520.306612
Q 392.553281 520.306612 392.553281 517.606612
L 392.553281 488.740237
Q 392.553281 486.040237 389.853281 486.040237
L 58.7475 486.040237
Q 56.0475 486.040237 56.0475 488.740237
L 56.0475 517.606612
Q 56.0475 520.306612 58.7475 520.306612
z
" style="fill: #f5deb3; opacity: 0.5; stroke: #ffffff; stroke-linejoin: miter"/>
    </g>
    <!-- Trade-off visualization: Faster methods (left) sacrifice accuracy for speed; -->
    <g style="fill: #262626" transform="translate(58.7475 495.578831) scale(0.09 -0.09)">
     <defs>
      <path id="DejaVuSans-54" d="M -19 4666
L 3928 4666
L 3928 4134
L 2272 4134
L 2272 0
L 1638 0
L 1638 4134
L -19 4134
L -19 4666
z
" transform="scale(0.015625)"/>
      <path id="DejaVuSans-64" d="M 2906 2969
L 2906 4863
L 3481 4863
L 3481 0
L 2906 0
L 2906 525
Q 2725 213 2448 61
Q 2172 -91 1784 -91
Q 1150 -91 751 415
Q 353 922 353 1747
Q 353 2572 751 3078
Q 1150 3584 1784 3584
Q 2172 3584 2448 3432
Q 2725 3281 2906 2969
z
M 947 1747
Q 947 1113 1208 752
Q 1469 391 1925 391
Q 2381 391 2643 752
Q 2906 1113 2906 1747
Q 2906 2381 2643 2742
Q 2381 3103 1925 3103
Q 1469 3103 1208 2742
Q 947 2381 947 1747
z
" transform="scale(0.015625)"/>
      <path id="DejaVuSans-2d" d="M 313 2009
L 1997 2009
L 1997 1497
L 313 1497
L 313 2009
z
" transform="scale(0.015625)"/>
      <path id="DejaVuSans-66" d="M 2375 4863
L 2375 4384
L 1825 4384
Q 1516 4384 1395 4259
Q 1275 4134 1275 3809
L 1275 3500
L 2222 3500
L 2222 3053
L 1275 3053
L 1275 0
L 697 0
L 697 3053
L 147 3053
L 147 3500
L 697 3500
L 697 3744
Q 697 4328 969 4595
Q 1241 4863 1831 4863
L 2375 4863
z
" transform="scale(0.015625)"/>
      <path id="DejaVuSans-75" d="M 544 1381
L 544 3500
L 1119 3500
L 1119 1403
Q 1119 906 1312 657
Q 1506 409 1894 409
Q 2359 409 2629 706
Q 2900 1003 2900 1516
L 2900 3500
L 3475 3500
L 3475 0
L 2900 0
L 2900 538
Q 2691 219 2414 64
Q 2138 -91 1772 -91
Q 1169 -91 856 284
Q 544 659 544 1381
z
M 1991 3584
L 1991 3584
z
" transform="scale(0.015625)"/>
      <path id="DejaVuSans-7a" d="M 353 3500
L 3084 3500
L 3084 2975
L 922 459
L 3084 459
L 3084 0
L 275 0
L 275 525
L 2438 3041
L 353 3041
L 353 3500
z
" transform="scale(0.015625)"/>
      <path id="DejaVuSans-3a" d="M 750 794
L 1409 794
L 1409 0
L 750 0
L 750 794
z
M 750 3309
L 1409 3309
L 1409 2516
L 750 2516
L 750 3309
z
" transform="scale(0.015625)"/>
      <path id="DejaVuSans-46" d="M 628 4666
L 3309 4666
L 3309 4134
L 1259 4134
L 1259 2759
L 3109 2759
L 3109 2228
L 1259 2228
L 1259 0
L 628 0
L 628 4666
z
" transform="scale(0.015625)"/>
      <path id="DejaVuSans-68" d="M 3513 2113
L 3513 0
L 2938 0
L 2938 2094
Q 2938 2591 2744 2837
Q 2550 3084 2163 3084
Q 1697 3084 1428 2787
Q 1159 2491 1159 1978
L 1159 0
L 581 0
L 581 4863
L 1159 4863
L 1159 2956
Q 1366 3272 1645 3428
Q 1925 3584 2291 3584
Q 2894 3584 3203 3211
Q 3513 2838 3513 2113
z
" transform="scale(0.015625)"/>
      <path id="DejaVuSans-28" d="M 1984 4856
Q 1566 4138 1362 3434
Q 1159 2731 1159 2009
Q 1159 1288 1364 580
Q 1569 -128 1984 -844
L 1484 -844
Q 1016 -109 783 600
Q 550 1309 550 2009
Q 550 2706 781 3412
Q 1013 4119 1484 4856
L 1984 4856
z
" transform="scale(0.015625)"/>
      <path id="DejaVuSans-29" d="M 513 4856
L 1013 4856
Q 1481 4119 1714 3412
Q 1947 2706 1947 2009
Q 1947 1309 1714 600
Q 1481 -109 1013 -844
L 513 -844
Q 928 -128 1133 580
Q 1338 1288 1338 2009
Q 1338 2731 1133 3434
Q 928 4138 513 4856
z
" transform="scale(0.015625)"/>
      <path id="DejaVuSans-63" d="M 3122 3366
L 3122 2828
Q 2878 2963 2633 3030
Q 2388 3097 2138 3097
Q 1578 3097 1268 2742
Q 959 2388 959 1747
Q 959 1106 1268 751
Q 1578 397 2138 397
Q 2388 397 2633 464
Q 2878 531 3122 666
L 3122 134
Q 2881 22 2623 -34
Q 2366 -91 2075 -91
Q 1284 -91 818 406
Q 353 903 353 1747
Q 353 2603 823 3093
Q 1294 3584 2113 3584
Q 2378 3584 2631 3529
Q 2884 3475 3122 3366
z
" transform="scale(0.015625)"/>
      <path id="DejaVuSans-79" d="M 2059 -325
Q 1816 -950 1584 -1140
Q 1353 -1331 966 -1331
L 506 -1331
L 506 -850
L 844 -850
Q 1081 -850 1212 -737
Q 1344 -625 1503 -206
L 1606 56
L 191 3500
L 800 3500
L 1894 763
L 2988 3500
L 3597 3500
L 2059 -325
z
" transform="scale(0.015625)"/>
      <path id="DejaVuSans-70" d="M 1159 525
L 1159 -1331
L 581 -1331
L 581 3500
L 1159 3500
L 1159 2969
Q 1341 3281 1617 3432
Q 1894 3584 2278 3584
Q 2916 3584 3314 3078
Q 3713 2572 3713 1747
Q 3713 922 3314 415
Q 2916 -91 2278 -91
Q 1894 -91 1617 61
Q 1341 213 1159 525
z
M 3116 1747
Q 3116 2381 2855 2742
Q 2594 3103 2138 3103
Q 1681 3103 1420 2742
Q 1159 2381 1159 1747
Q 1159 1113 1420 752
Q 1681 391 2138 391
Q 2594 391 2855 752
Q 3116 1113 3116 1747
z
" transform="scale(0.015625)"/>
      <path id="DejaVuSans-3b" d="M 750 3309
L 1409 3309
L 1409 2516
L 750 2516
L 750 3309
z
M 750 794
L 1409 794
L 1409 256
L 897 -744
L 494 -744
L 750 256
L 750 794
z
" transform="scale(0.015625)"/>
     </defs>
     <use xlink:href="#DejaVuSans-54"/>
     <use xlink:href="#DejaVuSans-72" x="46.333984"/>
     <use xlink:href="#DejaVuSans-61" x="87.447266"/>
     <use xlink:href="#DejaVuSans-64" x="148.726562"/>
     <use xlink:href="#DejaVuSans-65" x="212.203125"/>
     <use xlink:href="#DejaVuSans-2d" x="273.726562"/>
     <use xlink:href="#DejaVuSans-6f" x="311.685547"/>
     <use xlink:href="#DejaVuSans-66" x="372.867188"/>
     <use xlink:href="#DejaVuSans-66" x="408.072266"/>
     <use xlink:href="#DejaVuSans-20" x="443.277344"/>
     <use xlink:href="#DejaVuSans-76" x="475.064453"/>
     <use xlink:href="#DejaVuSans-69" x="534.244141"/>
     <use xlink:href="#DejaVuSans-73" x="562.027344"/>
     <use xlink:href="#DejaVuSans-75" x="614.126953"/>
     <use xlink:href="#DejaVuSans-61" x="677.505859"/>
     <use xlink:href="#DejaVuSans-6c" x="738.785156"/>
     <use xlink:href="#DejaVuSans-69" x="766.568359"/>
     <use xlink:href="#DejaVuSans-7a" x="794.351562"/>
     <use xlink:href="#DejaVuSans-61" x="846.841797"/>
     <use xlink:href="#DejaVuSans-74" x="908.121094"/>
     <use xlink:href="#DejaVuSans-69" x="947.330078"/>
     <use xlink:href="#DejaVuSans-6f" x="975.113281"/>
     <use xlink:href="#DejaVuSans-6e" x="1036.294922"/>
     <use xlink:href="#DejaVuSans-3a" x="1099.673828"/>
     <use xlink:href="#DejaVuSans-20" x="1133.365234"/>
     <use xlink:href="#DejaVuSans-46" x="1165.152344"/>
     <use xlink:href="#DejaVuSans-61" x="1213.546875"/>
     <use xlink:href="#DejaVuSans-73" x="1274.826172"/>
     <use xlink:href="#DejaVuSans-74" x="1326.925781"/>
     <use xlink:href="#DejaVuSans-65" x="1366.134766"/>
     <use xlink:href="#DejaVuSans-72" x="1427.658203"/>
     <use xlink:href="#DejaVuSans-20" x="1468.771484"/>
     <use xlink:href="#DejaVuSans-6d" x="1500.558594"/>
     <use xlink:href="#DejaVuSans-65" x="1597.970703"/>
     <use xlink:href="#DejaVuSans-74" x="1659.494141"/>
     <use xlink:href="#DejaVuSans-68" x="1698.703125"/>
     <use xlink:href="#DejaVuSans-6f" x="1762.082031"/>
     <use xlink:href="#DejaVuSans-64" x="1823.263672"/>
     <use xlink:href="#DejaVuSans-73" x="1886.740234"/>
     <use xlink:href="#DejaVuSans-20" x="1938.839844"/>
     <use xlink:href="#DejaVuSans-28" x="1970.626953"/>
     <use xlink:href="#DejaVuSans-6c" x="2009.640625"/>
     <use xlink:href="#DejaVuSans-65" x="2037.423828"/>
     <use xlink:href="#DejaVuSans-66" x="2098.947266"/>
     <use xlink:href="#DejaVuSans-74" x="2132.402344"/>
     <use xlink:href="#DejaVuSans-29" x="2171.611328"/>
     <use xlink:href="#DejaVuSans-20" x="2210.625"/>
     <use xlink:href="#DejaVuSans-73" x="2242.412109"/>
     <use xlink:href="#DejaVuSans-61" x="2294.511719"/>
     <use xlink:href="#DejaVuSans-63" x="2355.791016"/>
     <use xlink:href="#DejaVuSans-72" x="2410.771484"/>
     <use xlink:href="#DejaVuSans-69" x="2451.884766"/>
     <use xlink:href="#DejaVuSans-66" x="2479.667969"/>
     <use xlink:href="#DejaVuSans-69" x="2514.873047"/>
     <use xlink:href="#DejaVuSans-63" x="2542.65625"/>
     <use xlink:href="#DejaVuSans-65" x="2597.636719"/>
     <use xlink:href="#DejaVuSans-20" x="2659.160156"/>
     <use xlink:href="#DejaVuSans-61" x="2690.947266"/>
     <use xlink:href="#DejaVuSans-63" x="2752.226562"/>
     <use xlink:href="#DejaVuSans-63" x="2807.207031"/>
     <use xlink:href="#DejaVuSans-75" x="2862.1875"/>
     <use xlink:href="#DejaVuSans-72" x="2925.566406"/>
     <use xlink:href="#DejaVuSans-61" x="2966.679688"/>
     <use xlink:href="#DejaVuSans-63" x="3027.958984"/>
     <use xlink:href="#DejaVuSans-79" x="3082.939453"/>
     <use xlink:href="#DejaVuSans-20" x="3142.119141"/>
     <use xlink:href="#DejaVuSans-66" x="3173.90625"/>
     <use xlink:href="#DejaVuSans-6f" x="3209.111328"/>
     <use xlink:href="#DejaVuSans-72" x="3270.292969"/>
     <use xlink:href="#DejaVuSans-20" x="3311.40625"/>
     <use xlink:href="#DejaVuSans-73" x="3343.193359"/>
     <use xlink:href="#DejaVuSans-70" x="3395.292969"/>
     <use xlink:href="#DejaVuSans-65" x="3458.769531"/>
     <use xlink:href="#DejaVuSans-65" x="3520.292969"/>
     <use xlink:href="#DejaVuSans-64" x="3581.816406"/>
     <use xlink:href="#DejaVuSans-3b" x="3645.292969"/>
    </g>
    <!-- More accurate methods (right) require longer inference times. -->
    <g style="fill: #262626" transform="translate(58.7475 505.656862) scale(0.09 -0.09)">
     <defs>
      <path id="DejaVuSans-71" d="M 947 1747
Q 947 1113 1208 752
Q 1469 391 1925 391
Q 2381 391 2643 752
Q 2906 1113 2906 1747
Q 2906 2381 2643 2742
Q 2381 3103 1925 3103
Q 1469 3103 1208 2742
Q 947 2381 947 1747
z
M 2906 525
Q 2725 213 2448 61
Q 2172 -91 1784 -91
Q 1150 -91 751 415
Q 353 922 353 1747
Q 353 2572 751 3078
Q 1150 3584 1784 3584
Q 2172 3584 2448 3432
Q 2725 3281 2906 2969
L 2906 3500
L 3481 3500
L 3481 -1331
L 2906 -1331
L 2906 525
z
" transform="scale(0.015625)"/>
      <path id="DejaVuSans-2e" d="M 684 794
L 1344 794
L 1344 0
L 684 0
L 684 794
z
" transform="scale(0.015625)"/>
     </defs>
     <use xlink:href="#DejaVuSans-4d"/>
     <use xlink:href="#DejaVuSans-6f" x="86.279297"/>
     <use xlink:href="#DejaVuSans-72" x="147.460938"/>
     <use xlink:href="#DejaVuSans-65" x="186.324219"/>
     <use xlink:href="#DejaVuSans-20" x="247.847656"/>
     <use xlink:href="#DejaVuSans-61" x="279.634766"/>
     <use xlink:href="#DejaVuSans-63" x="340.914062"/>
     <use xlink:href="#DejaVuSans-63" x="395.894531"/>
     <use xlink:href="#DejaVuSans-75" x="450.875"/>
     <use xlink:href="#DejaVuSans-72" x="514.253906"/>
     <use xlink:href="#DejaVuSans-61" x="555.367188"/>
     <use xlink:href="#DejaVuSans-74" x="616.646484"/>
     <use xlink:href="#DejaVuSans-65" x="655.855469"/>
     <use xlink:href="#DejaVuSans-20" x="717.378906"/>
     <use xlink:href="#DejaVuSans-6d" x="749.166016"/>
     <use xlink:href="#DejaVuSans-65" x="846.578125"/>
     <use xlink:href="#DejaVuSans-74" x="908.101562"/>
     <use xlink:href="#DejaVuSans-68" x="947.310547"/>
     <use xlink:href="#DejaVuSans-6f" x="1010.689453"/>
     <use xlink:href="#DejaVuSans-64" x="1071.871094"/>
     <use xlink:href="#DejaVuSans-73" x="1135.347656"/>
     <use xlink:href="#DejaVuSans-20" x="1187.447266"/>
     <use xlink:href="#DejaVuSans-28" x="1219.234375"/>
     <use xlink:href="#DejaVuSans-72" x="1258.248047"/>
     <use xlink:href="#DejaVuSans-69" x="1299.361328"/>
     <use xlink:href="#DejaVuSans-67" x="1327.144531"/>
     <use xlink:href="#DejaVuSans-68" x="1390.621094"/>
     <use xlink:href="#DejaVuSans-74" x="1454"/>
     <use xlink:href="#DejaVuSans-29" x="1493.208984"/>
     <use xlink:href="#DejaVuSans-20" x="1532.222656"/>
     <use xlink:href="#DejaVuSans-72" x="1564.009766"/>
     <use xlink:href="#DejaVuSans-65" x="1602.873047"/>
     <use xlink:href="#DejaVuSans-71" x="1664.396484"/>
     <use xlink:href="#DejaVuSans-75" x="1727.873047"/>
     <use xlink:href="#DejaVuSans-69" x="1791.251953"/>
     <use xlink:href="#DejaVuSans-72" x="1819.035156"/>
     <use xlink:href="#DejaVuSans-65" x="1857.898438"/>
     <use xlink:href="#DejaVuSans-20" x="1919.421875"/>
     <use xlink:href="#DejaVuSans-6c" x="1951.208984"/>
     <use xlink:href="#DejaVuSans-6f" x="1978.992188"/>
     <use xlink:href="#DejaVuSans-6e" x="2040.173828"/>
     <use xlink:href="#DejaVuSans-67" x="2103.552734"/>
     <use xlink:href="#DejaVuSans-65" x="2167.029297"/>
     <use xlink:href="#DejaVuSans-72" x="2228.552734"/>
     <use xlink:href="#DejaVuSans-20" x="2269.666016"/>
     <use xlink:href="#DejaVuSans-69" x="2301.453125"/>
     <use xlink:href="#DejaVuSans-6e" x="2329.236328"/>
     <use xlink:href="#DejaVuSans-66" x="2392.615234"/>
     <use xlink:href="#DejaVuSans-65" x="2427.820312"/>
     <use xlink:href="#DejaVuSans-72" x="2489.34375"/>
     <use xlink:href="#DejaVuSans-65" x="2528.207031"/>
     <use xlink:href="#DejaVuSans-6e" x="2589.730469"/>
     <use xlink:href="#DejaVuSans-63" x="2653.109375"/>
     <use xlink:href="#DejaVuSans-65" x="2708.089844"/>
     <use xlink:href="#DejaVuSans-20" x="2769.613281"/>
     <use xlink:href="#DejaVuSans-74" x="2801.400391"/>
     <use xlink:href="#DejaVuSans-69" x="2840.609375"/>
     <use xlink:href="#DejaVuSans-6d" x="2868.392578"/>
     <use xlink:href="#DejaVuSans-65" x="2965.804688"/>
     <use xlink:href="#DejaVuSans-73" x="3027.328125"/>
     <use xlink:href="#DejaVuSans-2e" x="3079.427734"/>
    </g>
    <!-- Dummy data for illustration purposes. -->
    <g style="fill: #262626" transform="translate(58.7475 515.734894) scale(0.09 -0.09)">
     <defs>
      <path id="DejaVuSans-44" d="M 1259 4147
L 1259 519
L 2022 519
Q 2988 519 3436 956
Q 3884 1394 3884 2338
Q 3884 3275 3436 3711
Q 2988 4147 2022 4147
L 1259 4147
z
M 628 4666
L 1925 4666
Q 3281 4666 3915 4102
Q 4550 3538 4550 2338
Q 4550 1131 3912 565
Q 3275 0 1925 0
L 628 0
L 628 4666
z
" transform="scale(0.015625)"/>
     </defs>
     <use xlink:href="#DejaVuSans-44"/>
     <use xlink:href="#DejaVuSans-75" x="77.001953"/>
     <use xlink:href="#DejaVuSans-6d" x="140.380859"/>
     <use xlink:href="#DejaVuSans-6d" x="237.792969"/>
     <use xlink:href="#DejaVuSans-79" x="335.205078"/>
     <use xlink:href="#DejaVuSans-20" x="394.384766"/>
     <use xlink:href="#DejaVuSans-64" x="426.171875"/>
     <use xlink:href="#DejaVuSans-61" x="489.648438"/>
     <use xlink:href="#DejaVuSans-74" x="550.927734"/>
     <use xlink:href="#DejaVuSans-61" x="590.136719"/>
     <use xlink:href="#DejaVuSans-20" x="651.416016"/>
     <use xlink:href="#DejaVuSans-66" x="683.203125"/>
     <use xlink:href="#DejaVuSans-6f" x="718.408203"/>
     <use xlink:href="#DejaVuSans-72" x="779.589844"/>
     <use xlink:href="#DejaVuSans-20" x="820.703125"/>
     <use xlink:href="#DejaVuSans-69" x="852.490234"/>
     <use xlink:href="#DejaVuSans-6c" x="880.273438"/>
     <use xlink:href="#DejaVuSans-6c" x="908.056641"/>
     <use xlink:href="#DejaVuSans-75" x="935.839844"/>
     <use xlink:href="#DejaVuSans-73" x="999.21875"/>
     <use xlink:href="#DejaVuSans-74" x="1051.318359"/>
     <use xlink:href="#DejaVuSans-72" x="1090.527344"/>
     <use xlink:href="#DejaVuSans-61" x="1131.640625"/>
     <use xlink:href="#DejaVuSans-74" x="1192.919922"/>
     <use xlink:href="#DejaVuSans-69" x="1232.128906"/>
     <use xlink:href="#DejaVuSans-6f" x="1259.912109"/>
     <use xlink:href="#DejaVuSans-6e" x="1321.09375"/>
     <use xlink:href="#DejaVuSans-20" x="1384.472656"/>
     <use xlink:href="#DejaVuSans-70" x="1416.259766"/>
     <use xlink:href="#DejaVuSans-75" x="1479.736328"/>
     <use xlink:href="#DejaVuSans-72" x="1543.115234"/>
     <use xlink:href="#DejaVuSans-70" x="1584.228516"/>
     <use xlink:href="#DejaVuSans-6f" x="1647.705078"/>
     <use xlink:href="#DejaVuSans-73" x="1708.886719"/>
     <use xlink:href="#DejaVuSans-65" x="1760.986328"/>
     <use xlink:href="#DejaVuSans-73" x="1822.509766"/>
     <use xlink:href="#DejaVuSans-2e" x="1874.609375"/>
    </g>
   </g>
   <g id="text_26">
    <!-- sam-detect: Speed vs Accuracy Trade-off Across Configurations -->
    <g style="fill: #262626" transform="translate(194.623125 17.837812) scale(0.14 -0.14)">
     <defs>
      <path id="DejaVuSans-Bold-2d" d="M 347 2297
L 2309 2297
L 2309 1388
L 347 1388
L 347 2297
z
" transform="scale(0.015625)"/>
      <path id="DejaVuSans-Bold-64" d="M 2919 2988
L 2919 4863
L 4044 4863
L 4044 0
L 2919 0
L 2919 506
Q 2688 197 2409 53
Q 2131 -91 1766 -91
Q 1119 -91 703 423
Q 288 938 288 1747
Q 288 2556 703 3070
Q 1119 3584 1766 3584
Q 2128 3584 2408 3439
Q 2688 3294 2919 2988
z
M 2181 722
Q 2541 722 2730 984
Q 2919 1247 2919 1747
Q 2919 2247 2730 2509
Q 2541 2772 2181 2772
Q 1825 2772 1636 2509
Q 1447 2247 1447 1747
Q 1447 1247 1636 984
Q 1825 722 2181 722
z
" transform="scale(0.015625)"/>
      <path id="DejaVuSans-Bold-3a" d="M 716 3500
L 1844 3500
L 1844 2291
L 716 2291
L 716 3500
z
M 716 1209
L 1844 1209
L 1844 0
L 716 0
L 716 1209
z
" transform="scale(0.015625)"/>
      <path id="DejaVuSans-Bold-53" d="M 3834 4519
L 3834 3531
Q 3450 3703 3084 3790
Q 2719 3878 2394 3878
Q 1963 3878 1756 3759
Q 1550 3641 1550 3391
Q 1550 3203 1689 3098
Q 1828 2994 2194 2919
L 2706 2816
Q 3484 2659 3812 2340
Q 4141 2022 4141 1434
Q 4141 663 3683 286
Q 3225 -91 2284 -91
Q 1841 -91 1394 -6
Q 947 78 500 244
L 500 1259
Q 947 1022 1364 901
Q 1781 781 2169 781
Q 2563 781 2772 912
Q 2981 1044 2981 1288
Q 2981 1506 2839 1625
Q 2697 1744 2272 1838
L 1806 1941
Q 1106 2091 782 2419
Q 459 2747 459 3303
Q 459 4000 909 4375
Q 1359 4750 2203 4750
Q 2588 4750 2994 4692
Q 3400 4634 3834 4519
z
" transform="scale(0.015625)"/>
      <path id="DejaVuSans-Bold-76" d="M 97 3500
L 1216 3500
L 2088 1081
L 2956 3500
L 4078 3500
L 2700 0
L 1472 0
L 97 3500
z
" transform="scale(0.015625)"/>
      <path id="DejaVuSans-Bold-43" d="M 4288 256
Q 3956 84 3597 -3
Q 3238 -91 2847 -91
Q 1681 -91 1000 561
Q 319 1213 319 2328
Q 319 3447 1000 4098
Q 1681 4750 2847 4750
Q 3238 4750 3597 4662
Q 3956 4575 4288 4403
L 4288 3438
Q 3953 3666 3628 3772
Q 3303 3878 2944 3878
Q 2300 3878 1931 3465
Q 1563 3053 1563 2328
Q 1563 1606 1931 1193
Q 2300 781 2944 781
Q 3303 781 3628 887
Q 3953 994 4288 1222
L 4288 256
z
" transform="scale(0.015625)"/>
     </defs>
     <use xlink:href="#DejaVuSans-Bold-73"/>
     <use xlink:href="#DejaVuSans-Bold-61" x="59.521484"/>
     <use xlink:href="#DejaVuSans-Bold-6d" x="127.001953"/>
     <use xlink:href="#DejaVuSans-Bold-2d" x="231.201172"/>
     <use xlink:href="#DejaVuSans-Bold-64" x="272.705078"/>
     <use xlink:href="#DejaVuSans-Bold-65" x="344.287109"/>
     <use xlink:href="#DejaVuSans-Bold-74" x="412.109375"/>
     <use xlink:href="#DejaVuSans-Bold-65" x="459.912109"/>
     <use xlink:href="#DejaVuSans-Bold-63" x="527.734375"/>
     <use xlink:href="#DejaVuSans-Bold-74" x="587.011719"/>
     <use xlink:href="#DejaVuSans-Bold-3a" x="634.814453"/>
     <use xlink:href="#DejaVuSans-Bold-20" x="674.804688"/>
     <use xlink:href="#DejaVuSans-Bold-53" x="709.619141"/>
     <use xlink:href="#DejaVuSans-Bold-70" x="781.640625"/>
     <use xlink:href="#DejaVuSans-Bold-65" x="853.222656"/>
     <use xlink:href="#DejaVuSans-Bold-65" x="921.044922"/>
     <use xlink:href="#DejaVuSans-Bold-64" x="988.867188"/>
     <use xlink:href="#DejaVuSans-Bold-20" x="1060.449219"/>
     <use xlink:href="#DejaVuSans-Bold-76" x="1095.263672"/>
     <use xlink:href="#DejaVuSans-Bold-73" x="1160.449219"/>
     <use xlink:href="#DejaVuSans-Bold-20" x="1219.970703"/>
     <use xlink:href="#DejaVuSans-Bold-41" x="1254.785156"/>
     <use xlink:href="#DejaVuSans-Bold-63" x="1332.177734"/>
     <use xlink:href="#DejaVuSans-Bold-63" x="1391.455078"/>
     <use xlink:href="#DejaVuSans-Bold-75" x="1450.732422"/>
     <use xlink:href="#DejaVuSans-Bold-72" x="1521.923828"/>
     <use xlink:href="#DejaVuSans-Bold-61" x="1571.240234"/>
     <use xlink:href="#DejaVuSans-Bold-63" x="1638.720703"/>
     <use xlink:href="#DejaVuSans-Bold-79" x="1697.998047"/>
     <use xlink:href="#DejaVuSans-Bold-20" x="1763.183594"/>
     <use xlink:href="#DejaVuSans-Bold-54" x="1797.998047"/>
     <use xlink:href="#DejaVuSans-Bold-72" x="1855.210938"/>
     <use xlink:href="#DejaVuSans-Bold-61" x="1904.527344"/>
     <use xlink:href="#DejaVuSans-Bold-64" x="1972.007812"/>
     <use xlink:href="#DejaVuSans-Bold-65" x="2043.589844"/>
     <use xlink:href="#DejaVuSans-Bold-2d" x="2111.412109"/>
     <use xlink:href="#DejaVuSans-Bold-6f" x="2152.916016"/>
     <use xlink:href="#DejaVuSans-Bold-66" x="2221.617188"/>
     <use xlink:href="#DejaVuSans-Bold-66" x="2265.123047"/>
     <use xlink:href="#DejaVuSans-Bold-20" x="2308.628906"/>
     <use xlink:href="#DejaVuSans-Bold-41" x="2343.443359"/>
     <use xlink:href="#DejaVuSans-Bold-63" x="2420.835938"/>
     <use xlink:href="#DejaVuSans-Bold-72" x="2480.113281"/>
     <use xlink:href="#DejaVuSans-Bold-6f" x="2529.429688"/>
     <use xlink:href="#DejaVuSans-Bold-73" x="2598.130859"/>
     <use xlink:href="#DejaVuSans-Bold-73" x="2657.652344"/>
     <use xlink:href="#DejaVuSans-Bold-20" x="2717.173828"/>
     <use xlink:href="#DejaVuSans-Bold-43" x="2751.988281"/>
     <use xlink:href="#DejaVuSans-Bold-6f" x="2825.376953"/>
     <use xlink:href="#DejaVuSans-Bold-6e" x="2894.078125"/>
     <use xlink:href="#DejaVuSans-Bold-66" x="2965.269531"/>
     <use xlink:href="#DejaVuSans-Bold-69" x="3008.775391"/>
     <use xlink:href="#DejaVuSans-Bold-67" x="3043.052734"/>
     <use xlink:href="#DejaVuSans-Bold-75" x="3114.634766"/>
     <use xlink:href="#DejaVuSans-Bold-72" x="3185.826172"/>
     <use xlink:href="#DejaVuSans-Bold-61" x="3235.142578"/>
     <use xlink:href="#DejaVuSans-Bold-74" x="3302.623047"/>
     <use xlink:href="#DejaVuSans-Bold-69" x="3350.425781"/>
     <use xlink:href="#DejaVuSans-Bold-6f" x="3384.703125"/>
     <use xlink:href="#DejaVuSans-Bold-6e" x="3453.404297"/>
     <use xlink:href="#DejaVuSans-Bold-73" x="3524.595703"/>
    </g>
   </g>
  </g>
 </g>
 <defs>
  <clipPath id="p6862c46ee0">
   <rect x="42.6325" y="37.837812" width="805.75" height="489.56"/>
  </clipPath>
 </defs>
</svg>
